<svg width="88" height="64" viewBox="0 0 88 64" fill="none" xmlns="http://www.w3.org/2000/svg">
<g clip-path="url(#clip0_351_2)">
<path d="M31.3948 18.5249L19.3172 29.8598L15.2409 16.2288C14.7349 14.5373 16.3726 13.0024 18.0314 13.6125L31.4093 18.5228L31.3948 18.5249Z" fill="#FF981B"/>
<path d="M31.8565 21.7929L19.7788 33.1278L15.7025 19.4968C15.1966 17.8053 16.8343 16.2704 18.493 16.8805L31.871 21.7908L31.8565 21.7929Z" fill="white"/>
<path d="M30.5824 17.499C26.5621 21.2814 22.5397 25.0494 18.5048 28.8339C19.1817 29.0049 19.8586 29.176 20.5356 29.347C19.8851 27.1575 19.2201 24.9701 18.5697 22.7806C18.0988 21.2323 17.6425 19.682 17.1716 18.1338C16.8619 17.0961 16.1326 16.0288 16.9939 15.2998C18.2818 14.229 22.7353 16.7703 24.2052 17.3034C26.4286 18.1301 28.6645 18.9402 30.8879 19.7668C32.4844 20.3561 33.4755 17.92 31.8936 17.3286C28.9373 16.2499 25.9935 15.1546 23.0372 14.0759C20.7204 13.218 17.0722 11.0222 14.883 13.1684C12.7312 15.2648 14.7 19.0162 15.4042 21.3759C16.3045 24.3893 17.2028 27.3882 18.1031 30.4017C18.3323 31.1841 19.5554 31.4409 20.1339 30.9148C24.1542 27.1323 28.1766 23.3644 32.2115 19.5799C33.4434 18.4282 31.8143 16.3473 30.5699 17.5156L30.5824 17.499Z" fill="#803720"/>
<path d="M19.5511 19.9606C21.1393 21.6473 22.7421 23.3319 24.3304 25.0186C25.4832 26.2484 27.5677 24.6207 26.3983 23.3785C24.81 21.6918 23.2072 20.0071 21.6189 18.3204C20.4661 17.0907 18.3816 18.7184 19.5511 19.9606Z" fill="#803720"/>
<path d="M54.1005 15.3182L68.8448 22.865L68.9867 8.63823C69.0044 6.87285 67.0057 5.85149 65.5808 6.89713L54.0859 15.3202L54.1005 15.3182Z" fill="#FF981B"/>
<path d="M54.5619 18.5862L69.3062 26.133L69.4481 11.9062C69.4659 10.1409 67.4672 9.11949 66.0423 10.1651L54.5474 18.5882L54.5619 18.5862Z" fill="white"/>
<path d="M54.5972 14.1073C59.5078 16.6285 64.4163 19.1351 69.3415 21.6542C68.7384 22.006 68.1353 22.3578 67.5323 22.7096C67.5509 20.4256 67.5841 18.1396 67.6028 15.8556C67.6264 14.2375 67.6356 12.6215 67.6593 11.0034C67.6695 9.92049 68.0747 8.69295 67.0452 8.23098C65.5112 7.55878 61.9356 11.234 60.6709 12.1533C58.7634 13.5634 56.8392 14.961 54.9317 16.3711C53.5609 17.3795 51.9339 15.3131 53.2901 14.3067C55.8321 12.4515 58.3574 10.5838 60.8993 8.72861C62.8879 7.26262 65.7853 4.14244 68.4833 5.59835C71.1315 7.01685 70.2786 11.1668 70.2554 13.6292C70.2249 16.7741 70.1922 19.9045 70.1616 23.0494C70.1581 23.8647 69.0539 24.4502 68.3524 24.1049C63.4418 21.5837 58.5332 19.0771 53.6081 16.558C52.1054 15.7925 53.0945 13.3418 54.6138 14.1198L54.5972 14.1073Z" fill="#803720"/>
<path d="M65.8787 13.4177C64.8197 15.4783 63.7461 17.541 62.6871 19.6015C61.9199 21.1024 59.4662 20.1157 60.2459 18.5982C61.3049 16.5377 62.3785 14.475 63.4375 12.4144C64.2047 10.9135 66.6584 11.9003 65.8787 13.4177Z" fill="#803720"/>
<path d="M75.0525 36.4616C77.4402 53.3681 63.8594 53.8491 47.3502 56.1807C30.841 58.5123 17.6581 61.8111 15.2704 44.9047C12.8827 27.9983 24.7979 15.7234 41.3071 13.3918C57.8163 11.0602 72.6648 19.5552 75.0525 36.4616Z" fill="#FF981B"/>
<path d="M73.7447 47.4755C68.7845 40.1912 56.9049 36.1211 45.5594 37.7235C34.2139 39.3258 24.463 46.0212 20.8391 55.7622C20.8391 55.7622 25.6484 59.142 35.0944 57.9561C44.5405 56.7702 62.5419 54.0797 62.5419 54.0797C62.5419 54.0797 72.5525 50.7993 73.7593 47.4735L73.7447 47.4755Z" fill="white"/>
<path d="M73.7579 36.6445C74.3828 41.4893 73.9043 46.5048 69.5966 49.5131C65.7756 52.186 60.7324 52.9278 56.2294 53.6082C50.6542 54.4697 45.048 55.217 39.4439 55.9789C34.8309 56.6156 29.7918 57.3865 25.1924 56.2287C14.4571 53.5377 14.8319 38.0188 18.5815 30.0081C23.5426 19.4413 35.6488 14.1909 46.8625 14.2812C60.4547 14.4059 71.647 22.9581 73.7372 36.603C73.9877 38.2712 76.6079 37.916 76.3409 36.2352C74.378 23.3872 64.8803 14.0179 52.0226 12.0562C39.7568 10.1887 25.6059 14.6168 18.3659 25.1203C14.8438 30.2249 13.3309 36.3198 13.6813 42.4774C13.9816 47.6496 15.421 53.5349 19.9046 56.7089C23.9421 59.5607 29.256 59.5806 33.9973 59.2221C40.6459 58.7127 47.2854 57.5083 53.8891 56.5757C59.6928 55.756 66.2795 55.0184 71.2175 51.5359C76.2762 47.9624 77.093 41.9806 76.3554 36.2332C76.132 34.5463 73.5284 34.914 73.7518 36.6009L73.7579 36.6445Z" fill="#803720"/>
<path d="M41.7107 14.2533C41.7107 14.2533 42.0031 14.5379 42.3168 14.5529C42.3749 14.5447 42.9415 13.724 43.0123 13.5954C48.6036 10.7466 51.8361 24.6005 45.8314 21.6858C45.4614 21.7973 46.1818 23.2214 45.8769 24.1089C45.2546 25.9004 40.6414 26.6408 40.2712 23.3895C39.8157 24.8908 37.5246 25.8959 36.1823 24.9003C34.5412 23.6803 34.2447 17.5891 37.9268 20.5504C37.5387 15.7018 37.3153 14.0149 41.7086 14.2388L41.7107 14.2533Z" fill="#E77900"/>
<path d="M30.2658 15.6771C30.2658 15.6771 30.7009 12.8751 30.8734 12.8359C30.8734 12.8359 31.2033 14.2263 31.648 15.2745L30.2679 15.6917L30.2658 15.6771Z" fill="#4D1506"/>
<path d="M49.7478 9.81468C49.1067 11.6829 48.6603 10.4127 47.4177 9.38824C47.3525 11.027 46.7531 12.7708 45.6991 14.3418C45.5637 14.5387 45.2575 14.9968 45.2372 14.7478C45.138 14.4655 44.3082 12.6865 43.9757 12.7483C43.5169 13.7019 42.892 14.6346 42.4021 15.5778L41.278 13.3959L39.4321 17.5528C37.8425 16.5921 37.7534 14.1752 36.558 14.6403C36.5457 14.5532 36.392 14.5156 36.34 14.5674C35.678 15.3423 35.5242 15.4085 34.5211 15.2391C33.4744 15.0758 31.1771 13.7263 31.0147 12.7863C35.9477 10.9489 40.0055 9.42772 45.3168 8.5887C47.9149 7.86624 47.6121 4.14623 49.15 7.2622C49.5267 8.03859 49.5977 8.96185 49.7042 9.82084L49.7478 9.81468Z" fill="#C64624"/>
<path d="M36.3692 14.5633C36.3439 14.8039 36.3746 15.0217 36.3784 15.2582C35.3385 14.7236 36.3493 18.7288 35.0683 20.5837C33.6749 17.9658 31.2524 15.834 30.8734 12.8358C30.9316 12.8276 30.9898 12.8194 31.0439 12.7821C31.2063 13.7221 33.5036 15.0717 34.5503 15.2349C35.5534 15.4044 35.7072 15.3382 36.3692 14.5633Z" fill="#92301A"/>
<path d="M50.3621 7.96503C51.5434 10.6573 51.1132 13.0735 49.5541 16.0047L49.395 13.1977L49.0623 13.3632C49.0623 13.3632 48.7444 13.4229 48.8341 13.2176C48.9467 12.9647 49.2712 12.7411 49.3756 12.4301C49.5552 11.9158 50.1079 10.6823 50.1044 10.3421C50.0949 9.85454 49.7667 9.84164 49.7625 9.81259C49.6436 8.97017 49.585 8.03034 49.2083 7.25395C47.6704 4.13797 47.9733 7.85799 45.3752 8.58045L48.0594 5.00151C49.2484 5.75206 49.8759 6.83375 50.36 7.95051L50.3621 7.96503Z" fill="#4D1506"/>
<path d="M42.4168 15.5757C42.1604 16.0712 41.9456 16.546 41.6892 17.0414C39.7565 20.8994 40.5609 21.7635 38.1557 18.0737C37.4928 17.0563 37.0359 16.9727 36.5727 14.6382C37.7701 14.1877 37.8426 16.5921 39.4467 17.5507L41.2927 13.3939L42.4168 15.5757Z" fill="#92301A"/>
<path d="M45.2517 14.7457C46.0786 17.0288 45.0369 18.687 47.0934 16.4411C45.2631 19.9735 46.1081 16.8173 44.6737 15.0644C44.6397 15.4543 43.8893 19.175 43.1852 19.1263L42.2947 16.3929L41.7202 17.0518C41.962 16.5584 42.1769 16.0836 42.4478 15.5861C42.9232 14.645 43.5626 13.7103 44.0213 12.7566C44.3538 12.6949 45.1837 14.4739 45.2829 14.7561L45.2517 14.7457Z" fill="#8B4629"/>
<path d="M49.3609 12.4322C49.2565 12.7432 48.93 12.9523 48.8194 13.2197C48.7297 13.425 49.0601 13.3487 49.0476 13.3653C48.6264 14.2692 47.8096 15.6289 47.0789 16.4432C45.0224 18.6891 46.0662 17.0455 45.2373 14.7478C45.2576 14.9968 45.5617 14.5242 45.6992 14.3419C47.7188 14.1455 48.2847 13.636 49.3609 12.4322Z" fill="#92301A"/>
<path d="M36.5872 14.6362C37.0505 16.9706 37.5073 17.0543 38.1703 18.0717C37.3414 21.5516 37.1638 20.9248 36.5091 17.6545C36.3609 16.9199 36.3978 16.0258 36.3784 15.2582C36.3747 15.0217 36.3293 14.8059 36.3692 14.5633C36.4067 14.5135 36.6768 14.5346 36.5872 14.6362Z" fill="#8B4629"/>
<path d="M49.7479 9.81468C49.7479 9.81468 50.0947 9.85458 50.0897 10.3442C50.0932 10.6844 49.5405 11.9179 49.3609 12.4322C48.2847 13.636 47.7188 14.1455 45.6992 14.3418C46.7386 12.7729 47.3525 11.027 47.4178 9.38824C48.6624 10.4272 49.1068 11.6829 49.7479 9.81468Z" fill="#92301A"/>
<path d="M70.7962 34.1592C70.7962 34.1592 78.5631 30.9587 83.8191 30.883" stroke="#80371D" stroke-linecap="round" stroke-linejoin="round"/>
<path d="M72.9302 37.2947C72.9302 37.2947 80.6587 36.9736 84.8752 38.4669" stroke="#80371D" stroke-linecap="round" stroke-linejoin="round"/>
<path d="M68.7827 40.1766C68.7827 40.1766 78.6433 42.9764 81.8125 45.7731" stroke="#80371D" stroke-linecap="round" stroke-linejoin="round"/>
<path d="M18.4902 41.5464C18.4902 41.5464 10.1407 40.622 5.06934 42.0049" stroke="#80371D" stroke-linecap="round" stroke-linejoin="round"/>
<path d="M17.2933 45.1523C17.2933 45.1523 9.7781 46.984 6.14004 49.5866" stroke="#80371D" stroke-linecap="round" stroke-linejoin="round"/>
<path d="M22.0914 46.7709C22.0914 46.7709 13.3918 52.1919 11.1211 55.7569" stroke="#80371D" stroke-linecap="round" stroke-linejoin="round"/>
<path d="M29.9851 49.4041C32.5637 49.0399 34.3594 46.6573 33.9957 44.0823C33.6321 41.5074 31.2468 39.7152 28.6681 40.0794C26.0895 40.4436 24.2938 42.8262 24.6575 45.4012C25.0211 47.9761 27.4064 49.7683 29.9851 49.4041Z" fill="#F75A00"/>
<path d="M67.7811 40.5261C68.09 37.9438 66.2442 35.6012 63.6584 35.2937C61.0726 34.9863 58.7259 36.8304 58.417 39.4127C58.1081 41.9951 59.9539 44.3377 62.5397 44.6451C65.1255 44.9526 67.4721 43.1084 67.7811 40.5261Z" fill="#F75A00"/>
<path d="M64.4645 36.1793L52.6826 37.8433C52.319 37.8946 51.9516 37.7095 51.7985 37.3608C51.6329 37.0286 51.723 36.6159 51.9852 36.3715L60.6873 28.3428C61.0286 28.0279 61.5645 28.0411 61.8963 28.3943C62.2114 28.7349 62.198 29.2701 61.8443 29.6016L55.1501 35.7764L64.2265 34.4945C64.692 34.4287 65.1235 34.753 65.1892 35.2178C65.2548 35.6825 64.93 36.1136 64.4645 36.1793Z" fill="#80371D"/>
<path d="M37.5409 39.9818L25.759 41.6458C25.2936 41.7115 24.862 41.3873 24.7964 40.9225C24.7308 40.4577 25.0556 40.0267 25.5211 39.9609L34.5975 38.6791L26.4551 34.5996C26.04 34.3916 25.8644 33.8831 26.0708 33.454C26.2793 33.0394 26.7886 32.8637 27.2182 33.0697L37.8035 38.3744C38.1376 38.5346 38.3239 38.9083 38.2568 39.2733C38.1897 39.6383 37.9045 39.9304 37.5409 39.9818Z" fill="#80371D"/>
<path d="M45.6796 43.721C42.7705 44.1318 40.0156 41.9581 39.5475 38.8539C39.4819 38.3892 39.7922 37.9602 40.2556 37.8799C40.7065 37.8162 41.1505 38.1239 41.2307 38.5866C41.5675 40.7612 43.4469 42.3031 45.4396 42.0216C47.4323 41.7402 48.8112 39.7381 48.5326 37.5554C48.4669 37.0906 48.7938 36.6741 49.2738 36.6063C49.7393 36.5405 50.1729 36.8793 50.224 37.3461C50.6318 40.4439 48.5887 43.3101 45.6796 43.721Z" fill="#80371D"/>
<path d="M59.2409 26.3991C59.2655 26.5734 59.2154 26.7434 59.0468 26.9153C58.5931 27.3794 58.0564 27.7811 57.4535 28.0292C56.8922 28.2566 56.2481 28.318 55.6939 28.0703C54.6498 27.6104 54.4219 26.1019 55.4119 25.4436C55.805 25.1807 56.2975 25.0963 56.7607 25.1198C57.5667 25.1541 58.368 25.4705 58.9903 25.99C59.1272 26.1189 59.2184 26.2393 59.2534 26.3825L59.2409 26.3991Z" fill="#80371D"/>
<path d="M29.8298 30.5528C29.8545 30.7271 29.9498 30.8766 30.1594 30.9951C30.7238 31.3154 31.3508 31.5528 31.9988 31.6242C32.6011 31.6873 33.237 31.5678 33.701 31.1764C34.5769 30.4453 34.3781 28.9327 33.2445 28.5743C32.794 28.4306 32.2974 28.4859 31.8588 28.6367C31.0938 28.8929 30.4115 29.4189 29.9574 30.0904C29.8615 30.252 29.8073 30.393 29.8133 30.5403L29.8298 30.5528Z" fill="#80371D"/>
<path d="M31.7413 40.8305C29.6853 41.6097 28.9232 42.621 28.7426 44.8094C28.6917 45.3943 27.8772 45.5094 27.6663 44.9614C26.8868 42.9086 25.8744 42.148 23.683 41.9686C23.0973 41.918 22.9824 41.1046 23.5312 40.8938C25.5872 40.1145 26.3493 39.1032 26.5299 36.9149C26.5808 36.3299 27.3953 36.2149 27.6062 36.7629C28.3857 38.8156 29.3981 39.5763 31.5895 39.7557C32.1752 39.8063 32.2901 40.6197 31.7413 40.8305Z" fill="#FFDF3A"/>
<path d="M67.7269 35.7482C65.6709 36.5275 64.9087 37.5388 64.7282 39.7271C64.6773 40.3121 63.8628 40.4271 63.6519 39.8791C62.8724 37.8264 61.86 37.0657 59.6686 36.8863C59.0829 36.8357 58.968 36.0223 59.5168 35.8115C61.5728 35.0323 62.3349 34.021 62.5154 31.8326C62.5664 31.2477 63.3809 31.1326 63.5918 31.6806C64.3713 33.7334 65.3837 34.494 67.5751 34.6734C68.1608 34.724 68.2757 35.5374 67.7269 35.7482Z" fill="#FFDF3A"/>
</g>
<defs>
<clipPath id="clip0_351_2">
<rect width="81" height="52" fill="white" transform="translate(0.0610352 11.7952) rotate(-8.03874)"/>
</clipPath>
</defs>
</svg>
