<svg width="83" height="59" viewBox="0 0 83 59" fill="none" xmlns="http://www.w3.org/2000/svg">
<g clip-path="url(#clip0_867_2)">
<path d="M29.9246 13.6471L17.285 23.6768L14.4041 10.1522C14.0466 8.474 15.7603 7.11598 17.3243 7.83748L29.9389 13.6463L29.9246 13.6471Z" fill="#FF981B"/>
<path d="M30.1141 16.849L17.4744 26.8787L14.5936 13.3541C14.236 11.6759 15.9497 10.3179 17.5137 11.0394L30.1284 16.8482L30.1141 16.849Z" fill="white"/>
<path d="M29.2161 12.5894C25.008 15.9371 20.799 19.2706 16.5765 22.6191C17.221 22.8381 17.8654 23.057 18.5099 23.2759C18.0513 21.1039 17.5785 18.9326 17.1199 16.7606C16.7851 15.2238 16.4645 13.6862 16.1296 12.1494C15.9109 11.1199 15.2866 10.0286 16.1818 9.3902C17.5186 8.45433 21.6461 11.2663 23.0325 11.8983C25.1282 12.874 27.2374 13.8346 29.3331 14.8102C30.8382 15.5066 31.995 13.2248 30.5042 12.5275C27.7161 11.2501 24.9414 9.95752 22.1533 8.68007C19.9693 7.66679 16.5973 5.25286 14.2989 7.15955C12.0408 9.02101 13.657 12.8097 14.1543 15.1509C14.7904 18.1407 15.4256 21.1163 16.0617 24.1062C16.2224 24.8821 17.3909 25.2271 17.995 24.763C22.2032 21.4153 26.4122 18.0818 30.6346 14.7333C31.9235 13.7145 30.505 11.5707 29.2027 12.6045L29.2161 12.5894Z" fill="#803720"/>
<path d="M18.2978 14.1061C19.7079 15.8649 21.1322 17.6229 22.5423 19.3817C23.5653 20.6635 25.7207 19.2508 24.6826 17.9556C23.2725 16.1968 21.8481 14.4389 20.4381 12.6801C19.415 11.3982 17.2596 12.8109 18.2978 14.1061Z" fill="#803720"/>
<path d="M52.2502 12.3269L65.9838 20.797L67.2506 7.02718C67.4079 5.3185 65.5461 4.17192 64.0781 5.07272L52.2359 12.3277L52.2502 12.3269Z" fill="#FF981B"/>
<path d="M52.4397 15.5288L66.1733 23.9989L67.4401 10.2291C67.5974 8.52041 65.7356 7.37382 64.2675 8.27462L52.4254 15.5296L52.4397 15.5288Z" fill="white"/>
<path d="M52.8292 11.1931C57.4026 14.0215 61.9751 16.8357 66.5628 19.6632C65.9487 19.9566 65.3345 20.25 64.7204 20.5433C64.9197 18.3323 65.1334 16.1205 65.3327 13.9095C65.4841 12.344 65.6213 10.7793 65.7727 9.21382C65.8686 8.16568 66.3599 7.00847 65.3957 6.47999C63.9579 5.70818 60.1906 8.98697 58.8883 9.77801C56.9222 10.9939 54.9409 12.1963 52.9748 13.4122C51.5623 14.2812 50.1446 12.1515 51.5429 11.2834C54.161 9.68626 56.764 8.07573 59.3821 6.47859C61.4315 5.21496 64.4955 2.42045 67.0026 4.04297C69.4643 5.62534 68.3058 9.57812 68.088 11.9616C67.8087 15.0055 67.5286 18.0353 67.2493 21.0792C67.1812 21.8687 66.0614 22.349 65.4069 21.9593C60.8335 19.1309 56.261 16.3167 51.6733 13.4892C50.2733 12.6294 51.4293 10.3333 52.8444 11.2064L52.8292 11.1931Z" fill="#803720"/>
<path d="M63.8502 11.4124C62.6573 13.3252 61.45 15.2387 60.2571 17.1515C59.3922 18.545 57.0854 17.3961 57.9637 15.9876C59.1566 14.0748 60.3639 12.1613 61.5568 10.2485C62.4216 8.85504 64.7285 10.0039 63.8502 11.4124Z" fill="#803720"/>
<path d="M70.9394 34.456C71.9189 51.0205 58.6792 50.4182 42.4463 51.3782C26.2133 52.3381 13.1369 54.4965 12.1574 37.932C11.1779 21.3675 23.7342 10.4145 39.9672 9.45456C56.2001 8.49464 69.9598 17.8915 70.9394 34.456Z" fill="#FF981B"/>
<path d="M68.7944 45.0218C64.5507 37.5756 53.3259 32.6986 42.1702 33.3582C31.0145 34.0179 21.0048 39.7365 16.7092 48.8873C16.7092 48.8873 21.116 52.5395 30.3922 52.1338C39.6685 51.728 57.3804 50.5378 57.3804 50.5378C57.3804 50.5378 67.3718 48.1477 68.8087 45.021L68.7944 45.0218Z" fill="white"/>
<path d="M69.6665 34.5313C69.8895 39.2735 69.0264 44.0942 64.6003 46.6694C60.674 48.9579 55.7128 49.2799 51.2817 49.5847C45.7938 49.9806 40.285 50.2636 34.7769 50.5607C30.2423 50.8146 25.2828 51.165 20.9038 49.6817C10.6819 46.2305 12.2776 31.2274 16.5581 23.7626C22.2191 13.9171 34.4036 9.78356 45.2969 10.7531C58.4995 11.9431 68.7005 21.1077 69.6497 34.4894C69.7607 36.1251 72.336 35.9871 72.2098 34.3381C71.3212 21.7381 62.8322 11.9153 50.4894 9.00371C38.7144 6.22986 24.6075 9.40605 16.7364 19.011C12.9077 23.6786 10.9534 29.4635 10.8054 35.4558C10.6869 40.4895 11.6191 46.3036 15.7256 49.7309C19.424 52.811 24.5879 53.2482 29.2252 53.2738C35.7285 53.3034 42.2781 52.6591 48.7713 52.2751C54.4778 51.9376 60.939 51.7412 66.0154 48.7563C71.2163 45.6926 72.485 39.9626 72.2241 34.3372C72.1407 32.6856 69.5807 32.837 69.664 34.4886L69.6665 34.5313Z" fill="#803720"/>
<path d="M40.2911 10.3208C40.2911 10.3208 40.5527 10.6195 40.8564 10.6586C40.9136 10.6552 41.5295 9.9048 41.6086 9.78588C47.2697 7.46614 49.3126 21.1402 43.7069 17.8445C43.3384 17.9234 43.9256 19.3596 43.5589 20.1952C42.8118 21.8817 38.2688 22.236 38.1669 19.0575C37.6049 20.4759 35.2981 21.2692 34.0723 20.1993C32.5739 18.8884 32.769 12.9648 36.1132 16.1229C36.1207 11.3956 36.0374 9.74403 40.2902 10.3065L40.2911 10.3208Z" fill="#E77900"/>
<path d="M29.053 10.7997C29.053 10.7997 29.6982 8.11964 29.869 8.09526C29.869 8.09526 30.0794 9.46803 30.4285 10.5184L29.0538 10.8139L29.053 10.7997Z" fill="#4D1506"/>
<path d="M48.456 6.65346C47.6845 8.41273 47.3514 7.1472 46.2248 6.0571C46.0314 7.63939 45.3104 9.28143 44.1612 10.7203C44.014 10.9004 43.68 11.32 43.68 11.0772C43.6059 10.796 42.9404 9.00744 42.6123 9.04112C42.0907 9.9288 41.4093 10.7831 40.8582 11.6582L39.9387 9.45628L37.8144 13.3376C36.3455 12.2821 36.4506 9.93387 35.2518 10.2904C35.2467 10.205 35.1003 10.1565 35.0456 10.2026C34.3406 10.9012 34.1858 10.9532 33.2242 10.7102C32.2197 10.4697 30.0937 8.9817 30.0104 8.05839C34.9514 6.66662 39.0165 5.51228 44.2461 5.11735C46.8289 4.62189 46.8297 0.994613 48.0774 4.13393C48.3819 4.91563 48.3777 5.81554 48.4131 6.656L48.456 6.65346Z" fill="#C64624"/>
<path d="M35.0742 10.2008C35.0305 10.4319 35.0431 10.6454 35.028 10.8748C34.0596 10.2751 34.7243 14.2343 33.332 15.9304C32.1852 13.2849 29.9995 11.0293 29.869 8.09526C29.9263 8.09187 29.9835 8.08849 30.039 8.05665C30.1223 8.97995 32.2483 10.4679 33.2528 10.7084C34.2144 10.9514 34.3692 10.8994 35.0742 10.2008Z" fill="#92301A"/>
<path d="M49.1997 4.91007C50.1345 7.61092 49.5246 9.91758 47.7764 12.6343L47.8445 9.90268L47.508 10.0368C47.508 10.0368 47.1942 10.0697 47.2976 9.8779C47.4272 9.64175 47.7603 9.45069 47.8865 9.15761C48.1019 8.67362 48.7371 7.52219 48.7606 7.19235C48.7901 6.71935 48.472 6.68103 48.4704 6.65257C48.4215 5.82719 48.4392 4.9122 48.1346 4.1305C46.8869 0.991186 46.8862 4.61847 44.3033 5.11393C45.2725 4.02843 46.2369 2.9432 47.1966 1.85827C48.2928 2.67883 48.8169 3.77599 49.1989 4.89584L49.1997 4.91007Z" fill="#4D1506"/>
<path d="M40.8727 11.6573C40.5841 12.1171 40.3376 12.5601 40.0491 13.0198C37.8643 16.6049 38.5777 17.5052 36.5324 13.7419C35.9687 12.7042 35.5313 12.5873 35.2662 10.2895C36.4659 9.94722 36.3456 12.282 37.8289 13.3368L39.9531 9.4554L40.8727 11.6573Z" fill="#92301A"/>
<path d="M43.6942 11.0763C44.3168 13.3529 43.1727 14.8772 45.3499 12.8634C43.2905 16.1412 44.3622 13.1503 43.107 11.3395C43.0431 11.7146 42.0184 15.2596 41.3378 15.1571C41.1218 14.2559 40.9056 13.35 40.6891 12.4393L40.0783 13.0324C40.3526 12.5734 40.5991 12.1304 40.9019 11.6698C41.4387 10.7956 42.1344 9.94043 42.656 9.05276C42.9841 9.01908 43.6496 10.8076 43.7237 11.0889L43.6942 11.0763Z" fill="#8B4629"/>
<path d="M47.8721 9.15848C47.7459 9.45155 47.4119 9.62839 47.2832 9.87877C47.1797 10.0705 47.507 10.0226 47.4936 10.0377C47.0123 10.8801 46.1105 12.133 45.3356 12.8643C43.1584 14.8781 44.3034 13.368 43.6799 11.0772C43.6799 11.32 44.0131 10.8861 44.1612 10.7203C46.1399 10.689 46.7305 10.2399 47.8721 9.15848Z" fill="#92301A"/>
<path d="M35.2803 10.2886C35.5454 12.5864 35.9829 12.7033 36.5465 13.741C35.4647 17.0467 35.3418 16.4256 34.9649 13.2062C34.8791 12.483 34.9859 11.6198 35.0279 10.8748C35.0431 10.6454 35.0162 10.4328 35.0742 10.2008C35.1146 10.1556 35.3754 10.1973 35.2803 10.2886Z" fill="#8B4629"/>
<path d="M48.456 6.65346C48.456 6.65346 48.79 6.71939 48.7462 7.19323C48.7227 7.52307 48.0875 8.67451 47.8721 9.1585C46.7305 10.2399 46.1399 10.689 44.1612 10.7203C45.2961 9.28227 46.0313 7.63938 46.2248 6.05709C47.3522 7.16142 47.6845 8.41273 48.456 6.65346Z" fill="#92301A"/>
<path d="M66.9843 31.8909C66.9843 31.8909 74.7882 29.4016 79.9034 29.7417" stroke="#80371D" stroke-linecap="round" stroke-linejoin="round"/>
<path d="M68.8101 35.096C68.8101 35.096 76.3482 35.3928 80.3284 37.171" stroke="#80371D" stroke-linecap="round" stroke-linejoin="round"/>
<path d="M64.5498 37.5614C64.5498 37.5614 73.9127 41.0491 76.7715 44.0075" stroke="#80371D" stroke-linecap="round" stroke-linejoin="round"/>
<path d="M15.5538 34.9322C15.5538 34.9322 7.51093 33.38 2.47153 34.3206" stroke="#80371D" stroke-linecap="round" stroke-linejoin="round"/>
<path d="M14.1042 38.331C14.1042 38.331 6.65364 39.5141 2.9107 41.749" stroke="#80371D" stroke-linecap="round" stroke-linejoin="round"/>
<path d="M18.6399 40.2762C18.6399 40.2762 9.75323 44.8431 7.26302 48.1177" stroke="#80371D" stroke-linecap="round" stroke-linejoin="round"/>
<path d="M28.2835 41.4767C30.4162 41.3506 32.0434 39.5281 31.9179 37.4061C31.7924 35.2841 29.9618 33.666 27.8291 33.7922C25.6964 33.9183 24.0693 35.7408 24.1947 37.8628C24.3202 39.9848 26.1508 41.6028 28.2835 41.4767Z" fill="#F75A00"/>
<path d="M56.1585 39.8284C58.2912 39.7022 59.9184 37.8798 59.7929 35.7577C59.6674 33.6357 57.8368 32.0177 55.7041 32.1438C53.5714 32.2699 51.9443 34.0924 52.0697 36.2144C52.1952 38.3365 54.0258 39.9545 56.1585 39.8284Z" fill="#F75A00"/>
<path d="M57.3052 33.0059L47.5797 33.581C47.2793 33.5988 46.9958 33.4156 46.8932 33.1361C46.7905 32.8565 46.8721 32.5375 47.1186 32.3373L54.761 26.3874C55.063 26.1553 55.4963 26.2011 55.7436 26.5007C55.9766 26.8011 55.9304 27.2322 55.6292 27.4785L49.757 32.0528L57.2513 31.6096C57.6375 31.5868 57.9706 31.8812 57.9933 32.2654C58.0161 32.6497 57.7199 32.9814 57.3338 33.0042L57.3052 33.0059Z" fill="#80371D"/>
<path d="M31.9816 37.4397C34.0778 36.4347 34.9594 33.9297 33.9507 31.8445C32.942 29.7593 30.4249 28.8835 28.3287 29.8885C26.2325 30.8934 25.3509 33.3985 26.3596 35.4837C27.3684 37.5689 29.8854 38.4446 31.9816 37.4397Z" fill="#80371D"/>
<path d="M41.9052 37.858C39.5025 38.0001 37.4059 36.0391 37.2275 33.5077C37.2048 33.1235 37.4866 32.7927 37.8728 32.7698C38.2589 32.747 38.5913 33.0272 38.614 33.4115C38.7343 35.2037 40.1789 36.5749 41.8236 36.4776C43.4684 36.3803 44.7269 34.8493 44.6495 33.0546C44.6268 32.6703 44.9381 32.352 45.3099 32.33C45.6961 32.3072 46.0149 32.6025 46.0377 32.9867C46.1597 35.5357 44.308 37.7159 41.9052 37.858Z" fill="#80371D"/>
<path d="M30.1217 33.2424C28.4004 33.7441 27.7139 34.513 27.4161 36.2728C27.3438 36.7483 26.6573 36.7889 26.5294 36.3252C26.0263 34.6128 25.254 33.9301 23.4855 33.6349C23.0077 33.5632 22.9673 32.8801 23.4334 32.7526C25.1547 32.2509 25.8412 31.482 26.1389 29.7222C26.2113 29.2467 26.8978 29.2061 27.0257 29.6698C27.5288 31.3822 28.3011 32.0649 30.0696 32.3601C30.5474 32.4318 30.5878 33.1149 30.1217 33.2424Z" fill="#FFDF3A"/>
<path d="M53.7001 24.708C53.7085 24.8503 53.6597 24.996 53.5091 25.1191C53.1137 25.471 52.6426 25.7559 52.1353 25.9144C51.67 26.0561 51.1257 26.074 50.6958 25.8424C49.8805 25.4051 49.7922 24.1536 50.6402 23.6894C50.9734 23.4983 51.3881 23.4738 51.7634 23.5087C52.428 23.5836 53.0489 23.8897 53.5217 24.3615C53.6285 24.4694 53.6925 24.5799 53.7135 24.6929L53.7001 24.708Z" fill="#80371D"/>
<path d="M29.415 26.1441C29.4234 26.2864 29.4891 26.4253 29.6531 26.5298C30.0872 26.8326 30.5887 27.06 31.1111 27.1576C31.5898 27.2436 32.1325 27.1972 32.5321 26.9165C33.2901 26.3862 33.2303 25.133 32.3335 24.7719C31.9801 24.6214 31.5654 24.646 31.1969 24.7249C30.5457 24.8776 29.9652 25.2547 29.5513 25.779C29.4579 25.8988 29.4075 26.016 29.3999 26.1307L29.415 26.1441Z" fill="#80371D"/>
<path d="M19.5881 56.3142C23.6718 56.0727 26.7875 52.583 26.5473 48.5197C26.307 44.4564 22.8017 41.3582 18.718 41.5997C14.6342 41.8412 11.5185 45.3309 11.7588 49.3942C11.9991 53.4575 15.5044 56.5557 19.5881 56.3142Z" fill="#FF981B" stroke="#803720" stroke-width="1.8" stroke-miterlimit="10"/>
<path d="M62.8378 53.7567C66.9216 53.5152 70.0373 50.0255 69.797 45.9622C69.5567 41.8989 66.0514 38.8007 61.9677 39.0422C57.884 39.2837 54.7683 42.7734 55.0086 46.8367C55.2488 50.9 58.7541 53.9982 62.8378 53.7567Z" fill="#FF981B" stroke="#803720" stroke-width="1.8" stroke-miterlimit="10"/>
<path d="M13.0729 38.7285C12.1508 37.6489 10.5258 37.516 9.44336 38.4316C8.36091 39.3472 8.2309 40.9646 9.15299 42.0442L10.5814 43.7165C11.5035 44.7961 13.1285 44.929 14.211 44.0134C15.2934 43.0978 15.4234 41.4804 14.5014 40.4008L13.0729 38.7285Z" fill="#FF981B" stroke="#803720" stroke-width="1.5" stroke-miterlimit="10" stroke-linecap="round"/>
<path d="M20.2112 36.9987C20.1276 35.5841 18.9104 34.5052 17.4925 34.589C16.0747 34.6729 14.9931 35.8877 15.0768 37.3024L15.2064 39.4939C15.29 40.9086 16.5072 41.9874 17.9251 41.9036C19.3429 41.8198 20.4245 40.605 20.3408 39.1903L20.2112 36.9987Z" fill="#FF981B" stroke="#803720" stroke-width="1.5" stroke-miterlimit="10" stroke-linecap="round"/>
</g>
<defs>
<clipPath id="clip0_867_2">
<rect width="79" height="54" fill="white" transform="translate(0 4.66345) rotate(-3.38418)"/>
</clipPath>
</defs>
</svg>
