<svg width="87" height="65" viewBox="0 0 87 65" fill="none" xmlns="http://www.w3.org/2000/svg">
<g clip-path="url(#clip0_448_49)">
<path d="M35.8974 16.767L21.3706 23.1767L21.9066 9.6615C21.973 7.98441 23.9421 7.11711 25.2621 8.18296L35.9113 16.7697L35.8974 16.767Z" fill="#FF981B"/>
<path d="M35.2995 19.8462L20.7727 26.2559L21.3087 12.7407C21.3751 11.0636 23.3442 10.1963 24.6642 11.2622L35.3134 19.8489L35.2995 19.8462Z" fill="white"/>
<path d="M35.4773 15.5919C30.6388 17.7339 25.8029 19.8623 20.9505 22.0016C21.5135 22.3666 22.0764 22.7315 22.6394 23.0965C22.7294 20.9269 22.8056 18.7547 22.8956 16.5851C22.9493 15.0476 23.0169 13.5128 23.0706 11.9752C23.1119 10.9465 22.7805 9.76024 23.7918 9.37438C25.2978 8.81478 28.5605 12.4876 29.7325 13.4253C31.4991 14.8619 33.2822 16.2875 35.0488 17.7241C36.3186 18.7518 37.9799 16.8732 36.724 15.8482C34.3688 13.9565 32.0301 12.0537 29.6748 10.1619C27.8329 8.66806 25.1959 5.55702 22.5341 6.80106C19.922 8.01214 20.5456 11.9961 20.4514 14.3353C20.3322 17.3228 20.2156 20.2967 20.0963 23.2843C20.0612 24.0585 21.0947 24.6711 21.7852 24.3792C26.6238 22.2371 31.4596 20.1088 36.3121 17.9695C37.7924 17.3197 36.9576 14.9421 35.4608 15.6029L35.4773 15.5919Z" fill="#803720"/>
<path d="M24.6679 14.3588C25.5883 16.3696 26.5225 18.383 27.4429 20.3938C28.1093 21.8582 30.5141 21.0471 29.8365 19.5663C28.9161 17.5556 27.9818 15.5421 27.0614 13.5313C26.3951 12.067 23.9903 12.8781 24.6679 14.3588Z" fill="#803720"/>
<path d="M57.5672 20.9756L68.6388 32.3568L73.2006 19.6235C73.7667 18.0435 72.2654 16.5021 70.6424 16.9964L57.5533 20.9729L57.5672 20.9756Z" fill="#FF981B"/>
<path d="M56.9693 24.0548L68.0409 35.4361L72.6027 22.7027C73.1688 21.1227 71.6675 19.5814 70.0445 20.0756L56.9554 24.0521L56.9693 24.0548Z" fill="white"/>
<path d="M58.3966 20.0431C62.0816 23.8405 65.7693 27.6243 69.4682 31.4244C68.8095 31.5521 68.1509 31.6798 67.4922 31.8075C68.2208 29.762 68.9633 27.7191 69.6919 25.6736C70.2176 24.2277 70.7294 22.7791 71.2551 21.3333C71.6019 20.3639 72.3532 19.3879 71.5599 18.6516C70.3728 17.5689 65.9726 19.7535 64.5348 20.1843C62.3589 20.8552 60.1718 21.5098 57.9959 22.1807C56.4337 22.6584 55.5963 20.2945 57.1446 19.8141C60.0367 18.9415 62.9176 18.0524 65.8098 17.1798C68.0769 16.484 71.6868 14.5861 73.6894 16.7361C75.6583 18.8369 73.5888 22.2978 72.8005 24.5021C71.7928 27.3171 70.7878 30.1185 69.7801 32.9335C69.5229 33.6646 68.3352 33.8458 67.8042 33.3166C64.1192 29.5192 60.4315 25.7355 56.7326 21.9354C55.6031 20.7787 57.2671 18.8864 58.4078 20.0595L58.3966 20.0431Z" fill="#803720"/>
<path d="M68.882 22.9458C67.2759 24.4659 65.6559 25.9832 64.0498 27.5033C62.8837 28.6118 60.9573 26.9595 62.1399 25.8401C63.746 24.32 65.3661 22.8026 66.9722 21.2825C68.1382 20.1741 70.0646 21.8263 68.882 22.9458Z" fill="#803720"/>
<path d="M70.054 46.5066C66.9602 62.4364 54.4466 58.6285 38.6905 55.5685C22.9345 52.5084 9.90521 51.3555 12.999 35.4257C16.0928 19.496 30.7646 12.1913 46.5207 15.2514C62.2767 18.3114 73.1478 30.5768 70.054 46.5066Z" fill="#FF981B"/>
<path d="M65.4319 55.9903C63.1858 47.8994 53.639 40.5351 42.811 38.4321C31.983 36.3292 21.0199 39.2984 14.6859 46.9158C14.6859 46.9158 18.0111 51.4528 26.9801 53.3367C35.949 55.2206 53.1754 58.4242 53.1754 58.4242C53.1754 58.4242 63.311 58.6033 65.4458 55.993L65.4319 55.9903Z" fill="white"/>
<path d="M68.8184 46.2666C67.8778 50.8131 65.8795 55.1683 61.0206 56.5253C56.7092 57.733 51.8869 56.8248 47.5755 56.0301C42.2315 55.0632 36.8949 53.9842 31.5556 52.9188C27.1577 52.0505 22.33 51.1697 18.5036 48.694C9.56878 42.9254 14.7452 29.1043 20.6546 23.0802C28.4634 15.1386 41.1205 14.2026 51.301 17.7846C63.6363 22.14 71.1609 33.3153 68.8125 46.2229C68.5207 47.7994 71.0168 48.2984 71.2974 46.7055C73.5134 34.5533 67.7861 23.1732 56.6919 17.3972C46.1073 11.8905 31.8449 11.4496 21.9813 18.623C17.1844 22.108 13.9081 27.1098 12.3086 32.7496C10.9704 37.4886 10.4472 43.2239 13.54 47.4743C16.3271 51.2962 21.1587 52.973 25.5867 54.1313C31.7982 55.7495 38.2179 56.7406 44.5203 57.9646C50.0592 59.0404 56.2855 60.4342 61.8659 58.8481C67.5847 57.2179 70.192 52.1004 71.3113 46.7082C71.6334 45.1234 69.1486 44.6408 68.8264 46.2256L68.8184 46.2666Z" fill="#803720"/>
<path d="M46.6195 16.1511C46.6195 16.1511 46.797 16.498 47.0779 16.6094C47.1335 16.6202 47.9049 16.0599 48.0095 15.9666C53.9873 15.1535 52.6136 28.6055 48.0552 24.113C47.6836 24.0976 47.8957 25.6016 47.3416 26.3035C46.217 27.7182 41.7865 26.943 42.4625 23.9073C41.58 25.1135 39.1811 25.3008 38.2693 23.9876C37.1555 22.3795 38.7833 16.8162 41.2128 20.6254C42.3702 16.1495 42.6924 14.5647 46.6222 16.1374L46.6195 16.1511Z" fill="#E77900"/>
<path d="M35.7569 13.8568C35.7569 13.8568 37.026 11.4759 37.1952 11.4946C37.1952 11.4946 37.0623 12.8464 37.1406 13.9267L35.7542 13.8704L35.7569 13.8568Z" fill="#4D1506"/>
<path d="M55.3194 14.6738C54.1536 16.1515 54.143 14.8713 53.331 13.5633C52.761 15.0148 51.672 16.3939 50.223 17.4758C50.0384 17.6104 49.617 17.9261 49.676 17.6962C49.6736 17.4117 49.4725 15.5548 49.1505 15.5065C48.4358 16.2198 47.5763 16.8623 46.8364 17.5565L46.4929 15.246L43.5172 18.4031C42.3694 17.044 43.0413 14.8455 41.8081 14.89C41.8241 14.8079 41.6959 14.7262 41.6324 14.7565C40.7883 15.2458 40.6276 15.2572 39.7672 14.7919C38.8652 14.3184 37.1943 12.3891 37.3393 11.4942C42.4026 11.3841 46.5707 11.2847 51.6675 12.1893C54.2578 12.3515 55.1411 8.91591 55.5704 12.1946C55.6714 13.0095 55.4484 13.8609 55.2777 14.6657L55.3194 14.6738Z" fill="#C64624"/>
<path d="M41.6601 14.7618C41.562 14.97 41.5222 15.1753 41.4519 15.3889C40.6718 14.5841 40.3441 18.4969 38.6 19.7629C38.1471 16.9767 36.6059 14.3057 37.195 11.4946C37.2506 11.5054 37.3061 11.5162 37.3669 11.4996C37.2219 12.3945 38.8928 14.3238 39.7949 14.7972C40.6553 15.2626 40.816 15.2512 41.6601 14.7618Z" fill="#92301A"/>
<path d="M56.4547 13.2043C56.6914 15.9912 55.5469 18.0269 53.2142 20.1728L53.944 17.602L53.5895 17.6468C53.5895 17.6468 53.2815 17.6012 53.4271 17.4448C53.6084 17.2528 53.9735 17.1533 54.1655 16.9065C54.4892 16.5008 55.3767 15.5654 55.4795 15.2587C55.6227 14.8179 55.3279 14.7038 55.3333 14.6765C55.4874 13.8827 55.7269 13.0203 55.6259 12.2054C55.1967 8.92671 54.3133 12.3624 51.723 12.2001C52.9139 11.4089 54.1001 10.6168 55.2817 9.82374C56.1303 10.869 56.3646 12.0365 56.4574 13.1906L56.4547 13.2043Z" fill="#4D1506"/>
<path d="M46.8502 17.5592C46.4624 17.9242 46.1189 18.2835 45.7311 18.6484C42.7696 21.51 43.2327 22.5373 42.1926 18.4725C41.9061 17.3517 41.5162 17.134 41.8219 14.8927C43.0523 14.8618 42.3692 17.044 43.5309 18.4057L46.5066 15.2487L46.8502 17.5592Z" fill="#92301A"/>
<path d="M49.6898 17.6989C49.7312 20.0076 48.2662 21.1716 50.8382 19.7965C48.0713 22.3977 49.8239 19.8268 49.0642 17.8046C48.9118 18.1443 47.0694 21.2516 46.4435 20.9881C46.4563 20.0816 46.47 19.1707 46.4845 18.2551L45.7562 18.6675C46.1301 18.2999 46.4736 17.9405 46.8753 17.5783C47.6012 16.8814 48.4746 16.2415 49.1894 15.5283C49.5113 15.5766 49.7125 17.4335 49.7149 17.718L49.6898 17.6989Z" fill="#8B4629"/>
<path d="M54.1516 16.9038C53.9596 17.1506 53.5972 17.2364 53.4132 17.4421C53.2676 17.5984 53.5922 17.6331 53.5756 17.6441C52.9105 18.3244 51.7433 19.2906 50.8244 19.7938C48.2525 21.1689 49.7148 20.0186 49.676 17.6962C49.6169 17.9261 50.0411 17.5967 50.223 17.4758C52.1228 17.9299 52.7968 17.649 54.1516 16.9038Z" fill="#92301A"/>
<path d="M41.8359 14.8954C41.5303 17.1367 41.9201 17.3545 42.2067 18.4752C40.3678 21.3418 40.4015 20.7235 40.8244 17.5819C40.9183 16.8758 41.2304 16.0844 41.4519 15.3889C41.5222 15.1753 41.5482 14.9674 41.6602 14.7619C41.7098 14.7289 41.949 14.8322 41.8359 14.8954Z" fill="#8B4629"/>
<path d="M55.3193 14.6738C55.3193 14.6738 55.6226 14.8179 55.4655 15.256C55.3627 15.5627 54.4752 16.498 54.1515 16.9038C52.7967 17.649 52.1227 17.93 50.2229 17.4758C51.658 16.3912 52.7609 15.0148 53.3309 13.5633C54.1402 14.885 54.1535 16.1515 55.3193 14.6738Z" fill="#92301A"/>
<path d="M66.896 43.1098C66.896 43.1098 74.9641 42.6601 79.7726 44.2331" stroke="#80371D" stroke-linecap="round" stroke-linejoin="round"/>
<path d="M67.8621 46.5922C67.8621 46.5922 74.998 48.7165 78.3714 51.3741" stroke="#80371D" stroke-linecap="round" stroke-linejoin="round"/>
<path d="M63.1882 47.8857C63.1882 47.8857 71.2928 53.4788 73.3066 56.9801" stroke="#80371D" stroke-linecap="round" stroke-linejoin="round"/>
<path d="M16.9764 33.4147C16.9764 33.4147 9.66321 29.9778 4.6155 29.6365" stroke="#80371D" stroke-linecap="round" stroke-linejoin="round"/>
<path d="M14.7633 36.2797C14.7633 36.2797 7.35089 35.5786 3.22799 36.7803" stroke="#80371D" stroke-linecap="round" stroke-linejoin="round"/>
<path d="M18.627 39.2313C18.627 39.2313 9.01807 41.3841 5.84006 43.8771" stroke="#80371D" stroke-linecap="round" stroke-linejoin="round"/>
<path d="M27.0667 42.8018C29.1138 43.1994 31.0909 41.8857 31.4829 39.8677C31.8748 37.8496 30.5331 35.8914 28.486 35.4938C26.439 35.0963 24.4618 36.4099 24.0699 38.428C23.678 40.446 25.0197 42.4043 27.0667 42.8018Z" fill="#F75A00"/>
<path d="M53.8729 48.0079C55.9199 48.4055 57.8971 47.0918 58.289 45.0738C58.681 43.0558 57.3392 41.0975 55.2922 40.7C53.2451 40.3024 51.268 41.6161 50.876 43.6341C50.4841 45.6521 51.8258 47.6104 53.8729 48.0079Z" fill="#F75A00"/>
<path d="M31.5368 39.9046C33.7628 39.4698 35.2005 37.3345 34.748 35.1354C34.2955 32.9362 32.1241 31.506 29.898 31.9408C27.672 32.3757 26.2343 34.511 26.6868 36.7101C27.1394 38.9092 29.3108 40.3395 31.5368 39.9046Z" fill="#80371D"/>
<path d="M53.4723 44.1301C55.6878 43.647 57.0774 41.4808 56.576 39.2918C56.0747 37.1027 53.8722 35.7198 51.6566 36.2029C49.4411 36.686 48.0515 38.8522 48.5528 41.0412C49.0542 43.2303 51.2567 44.6132 53.4723 44.1301Z" fill="#80371D"/>
<path d="M30.7981 35.531C29.0466 35.5743 28.203 36.1347 27.5066 37.7179C27.3244 38.1369 26.6719 38.0102 26.6598 37.5534C26.6066 35.8247 26.0342 34.9892 24.4262 34.2935C24.0006 34.1114 24.1255 33.4682 24.5884 33.4587C26.3398 33.4154 27.1834 32.855 27.8798 31.2718C28.062 30.8528 28.7145 30.9795 28.7266 31.4363C28.7798 33.165 29.3522 34.0005 30.9602 34.6962C31.3858 34.8783 31.2609 35.5215 30.7981 35.531Z" fill="#FFDF3A"/>
<path d="M59.3535 41.0769C57.602 41.1201 56.7585 41.6806 56.062 43.2637C55.8798 43.6828 55.2274 43.5561 55.2152 43.0993C55.162 41.3705 54.5896 40.5351 52.9816 39.8394C52.556 39.6573 52.681 39.0141 53.1438 39.0045C54.8953 38.9613 55.7388 38.4008 56.4352 36.8177C56.6174 36.3986 57.2699 36.5253 57.282 36.9821C57.3352 38.7109 57.9077 39.5463 59.5156 40.242C59.9412 40.4241 59.8163 41.0673 59.3535 41.0769Z" fill="#FFDF3A"/>
<path d="M55.1884 33.224C55.1618 33.3608 55.0824 33.4732 54.9058 33.5667C54.4421 33.8033 53.9222 33.958 53.4124 33.9868C52.9331 34.0073 52.4221 33.8939 52.0674 33.5693C51.3942 32.9557 51.6116 31.7624 52.5354 31.53C52.9005 31.4305 53.2892 31.506 53.6534 31.6335C54.2568 31.8643 54.79 32.3087 55.1134 32.8686C55.1893 32.9969 55.2236 33.1172 55.2023 33.2267L55.1884 33.224Z" fill="#80371D"/>
<path d="M31.8389 28.6892C31.8123 28.826 31.8439 28.96 31.9727 29.1128C32.3142 29.5058 32.7383 29.8438 33.2002 30.0613C33.6371 30.2598 34.1534 30.3458 34.6038 30.1777C35.4577 29.8607 35.7028 28.6727 34.9331 28.1114C34.6318 27.8825 34.2431 27.807 33.8577 27.7889C33.2117 27.7771 32.551 27.9896 32.0415 28.3877C31.9231 28.4783 31.8463 28.577 31.825 28.6865L31.8389 28.6892Z" fill="#80371D"/>
<path d="M43.5893 39.691C43.2703 41.3333 42.0269 42.4694 40.8192 42.2348C39.6114 42.0002 38.8836 40.4813 39.2026 38.8391C39.272 38.8526 39.3553 38.8687 39.4247 38.8822C40.2299 39.0386 41.0229 38.7382 41.5087 38.1651C41.5829 38.08 41.7356 38.1097 41.7725 38.2163C42.0085 38.9296 42.6314 39.505 43.4366 39.6614C43.4921 39.6722 43.5477 39.683 43.6032 39.6937L43.5893 39.691Z" fill="#FF9091"/>
<path d="M40.6915 42.8917C39.0812 42.5789 38.1428 40.7351 38.5361 38.7097C38.5734 38.5181 38.6939 38.3427 38.8705 38.2492C39.0471 38.1556 39.2547 38.125 39.4438 38.1901C39.4854 38.1982 39.5271 38.2063 39.5687 38.2143C40.1101 38.3195 40.6518 38.1265 41.0033 37.7261C41.2065 37.4957 41.5133 37.3991 41.8049 37.4557C42.0964 37.5123 42.3421 37.7305 42.4305 38.0174C42.6065 38.5203 43.0366 38.902 43.578 39.0072L43.6335 39.018C43.6335 39.018 43.7029 39.0315 43.7307 39.0368C44.1055 39.1096 44.3385 39.4673 44.2694 39.8232C43.8787 41.8349 42.2714 43.2127 40.7027 42.9081L40.6915 42.8917ZM39.8047 39.5951C39.7965 40.6018 40.2526 41.4431 40.9467 41.5779C41.6408 41.7127 42.3812 41.0896 42.7504 40.153C42.2302 39.9384 41.7837 39.5676 41.4555 39.1062C40.9758 39.4249 40.3952 39.5962 39.8047 39.5951Z" fill="#80371D"/>
<path d="M43.3089 40.3183C42.5454 40.17 41.882 39.7287 41.4693 39.1089C40.8547 39.5292 40.0744 39.6901 39.297 39.5391C39.1859 39.5175 39.0888 39.4987 38.9942 39.4661C38.0411 39.1816 37.3198 38.445 37.0569 37.4993C36.9541 37.1385 37.17 36.7686 37.5351 36.669C37.9001 36.5695 38.2761 36.7846 38.3789 37.1454C38.5133 37.6401 38.913 38.0302 39.4021 38.182L39.4299 38.1874C39.4715 38.1954 39.5131 38.2035 39.5548 38.2116C40.0962 38.3168 40.6379 38.1237 40.9893 37.7233C41.1925 37.493 41.5021 37.3827 41.7909 37.453C42.0825 37.5096 42.3282 37.7277 42.4165 38.0147C42.5926 38.5176 43.0226 38.8993 43.564 39.0045L43.6196 39.0153C43.6196 39.0153 43.6612 39.0233 43.689 39.0287C44.1828 39.082 44.6663 38.8919 44.9959 38.5299C45.2375 38.2502 45.6752 38.2216 45.96 38.4615C46.2447 38.7014 46.276 39.1335 46.0344 39.4133C45.4195 40.1317 44.4717 40.4873 43.5283 40.3751C43.5144 40.3724 43.5006 40.3697 43.4728 40.3643L43.4173 40.3535C43.4173 40.3535 43.3479 40.34 43.3201 40.3347L43.3089 40.3183Z" fill="#80371D"/>
</g>
<defs>
<clipPath id="clip0_448_49">
<rect width="77.9756" height="49.4211" fill="white" transform="translate(9.46851 0.940369) rotate(10.9908)"/>
</clipPath>
</defs>
</svg>
