<svg width="167" height="220" viewBox="0 0 167 220" fill="none" xmlns="http://www.w3.org/2000/svg">
<g id="_&#229;&#156;&#150;&#229;&#177;&#164;_1" clip-path="url(#clip0_154_6593)">
<path id="Vector" d="M127.27 116.45C123.09 97.72 103.16 66.83 101.14 63.73C103.65 62.76 105.81 61.58 107.46 60.17C121.33 48.28 107.46 16.19 107.46 16.19L113.63 2.23L90.62 11.99C90.62 11.99 65.85 5.25 50 14.06L34.13 0V22.87C34.13 22.87 23.23 49.71 34.13 58.62C36.59 60.63 40.98 62.42 46.44 63.84H46.42C46.42 63.84 28.62 83.5 11.44 130.18C11.44 130.18 7.47999 158.73 -0.0100098 166.03C-0.0100098 166.03 7.03999 159.61 31.26 166.03C35.98 167.28 41.51 168.48 47.41 169.54V214L74.42 209V173.06C75.67 173.16 76.9 173.24 78.13 173.32V208.5L105.23 204V171.98C107.31 171.39 108.97 170.64 110.09 169.69C119.34 161.88 136.07 171.13 140.48 171.57C144.88 172.01 166.02 164.08 166.02 164.08C166.02 164.08 131.67 136.17 127.27 116.44V116.45Z" fill="#232323"/>
</g>
<defs>
<clipPath id="clip0_154_6593">
<rect width="166.02" height="219.67" fill="white"/>
</clipPath>
</defs>
</svg>
