<svg width="330" height="286" viewBox="0 0 330 286" fill="none" xmlns="http://www.w3.org/2000/svg">
<g clip-path="url(#clip0_154_6430)">
<mask id="mask0_154_6430" style="mask-type:luminance" maskUnits="userSpaceOnUse" x="-42" y="0" width="463" height="286">
<path d="M420.7 0H-42V285.55H420.7V0Z" fill="white"/>
</mask>
<g mask="url(#mask0_154_6430)">
<path d="M187.561 224.9L109.587 218.572L103.501 293.555L181.475 299.884L187.561 224.9Z" fill="white"/>
<path d="M40.54 165.34C40.54 165.34 35.2 157.83 29.7 151.16C24.66 145.05 18.04 152.58 12.25 159.05C11.72 159.64 8.89003 161.42 8.37003 162.01C3.61003 168.18 17.08 186.35 17.08 186.35C17.08 186.35 29.65 167.86 40.54 165.34Z" fill="#FF991B"/>
<path d="M32.35 167.79C32.04 172.24 28.88 175.17 24.42 174.87C19.96 174.57 17.95 174.04 18.26 169.58C18.57 165.13 22.42 161.77 26.88 162.07C31.33 162.38 32.66 163.34 32.35 167.79Z" fill="white"/>
<path d="M176.05 50.6301C176.05 50.6301 159.38 49.1301 136.77 43.3101C109.04 36.1701 89.3201 19.5801 89.3201 19.5801C89.3201 19.5801 84.4501 36.8501 80.2101 59.3401C75.9701 81.8301 75.1401 90.1601 72.9101 91.7701C72.9101 91.7701 35.3501 122.92 57.1801 161.73C57.1801 161.73 76.6201 206.17 146.62 214.9C216.62 223.63 235.88 221.15 259.19 207.46C282.5 193.77 296.51 169.31 289.96 140.14L285.95 125.35C285.95 125.35 287.62 106.64 288.49 99.2401C289.36 91.8501 293.46 58.0401 290.75 53.4101C290.75 53.4101 277.27 63.0701 252.95 63.0001C228.63 62.9301 214.62 55.2701 176.06 50.6301H176.05Z" fill="#FF991B"/>
<path d="M152.58 120.25C152.58 120.25 156.34 125.84 156.19 129.63C156.04 133.42 170.12 140.86 177.59 135.7C177.59 135.7 179.96 134.8 181.36 129.28C182.75 123.77 191.68 125.27 191.85 130.45C192.01 135.63 240.48 148.24 240.48 148.24C240.48 148.24 241.09 159.02 274.88 162.56C274.88 162.56 282.24 164.29 277.91 172.28C277.91 172.28 274.67 178.42 290.13 172.88C290.13 172.88 274.8 228.37 190.43 220.4C106.07 212.43 82.5099 200.58 57.1899 161.74C57.1899 161.74 84.8499 178.36 90.5599 158.61C91.1199 156.66 93.3599 148.42 73.9799 135.62C70.7699 133.5 69.2299 126.41 77.4799 126.06C88.8399 125.57 95.7799 127.77 105.55 120.76C115.32 113.75 152.05 116.12 152.59 120.26L152.58 120.25Z" fill="white"/>
<g opacity="0.5">
<path d="M57.3101 160.38C57.3101 160.38 59.0101 163.71 66.3401 165.99C73.6501 167.74 75.0201 194.2 150.64 206.76C223.43 218.85 266.12 196.25 275.8 181.77C276.91 180.11 278.23 178.6 279.66 177.21C283.1 173.86 286.8 175.02 287.76 172.8C286.91 178.03 271.27 237.77 160.11 217.13C160.11 217.13 86.0301 216.66 57.3101 160.37V160.38Z" fill="#BABEBA"/>
</g>
<path d="M91.32 73.1499C91.32 73.1499 96.6 79.1999 104.79 79.2299C108.27 79.2399 109.09 84.6799 99.32 86.9999C89.55 89.3199 89.7 84.1499 84.62 85.2799C79.54 86.3999 79.52 85.2799 79.52 85.2799L91.32 73.1499Z" fill="#E87900"/>
<path d="M72.9101 91.77C72.9101 91.77 76.6601 92.94 82.8401 92.73C89.0201 92.52 90.0901 95.81 96.8601 93.78C103.63 91.75 102.99 98.57 98.0801 98.93C93.1701 99.29 93.4801 100.37 83.7801 99.91C74.0801 99.45 66.3401 100.85 66.3401 100.85L71.8901 95.4L72.9001 91.78L72.9101 91.77Z" fill="#E87900"/>
<path d="M106.41 206.42L111.78 233.58L142.66 215.86L106.41 206.42Z" fill="white"/>
<path d="M159.41 218.43L170.23 241.16L197.6 221.6L159.41 218.43Z" fill="white"/>
<path d="M134.65 215.12C134.65 215.12 128.95 229.16 131.41 233.58C131.41 233.58 132.91 235.9 138.21 235.9L122.9 258.32C122.9 258.32 125.95 273.9 135.27 281.1C135.27 281.1 154.89 263.83 156.2 261.6L148.13 235.82C148.13 235.82 157.05 237.32 158.9 231.11C160.75 224.9 159.42 218.43 159.42 218.43L134.66 215.12H134.65Z" fill="#00815F"/>
<path d="M143.6 260.19C143.6 262.69 141.57 264.72 139.07 264.72C136.57 264.72 134.54 262.69 134.54 260.19C134.54 257.69 136.57 255.66 139.07 255.66C141.57 255.66 143.6 257.69 143.6 260.19Z" fill="#FFB100"/>
<path d="M153.44 254.77C153.44 257.27 151.41 259.3 148.91 259.3C146.41 259.3 144.38 257.27 144.38 254.77C144.38 252.27 146.41 250.24 148.91 250.24C151.41 250.24 153.44 252.27 153.44 254.77Z" fill="#FFB100"/>
<path d="M131.86 253.01C134.36 253.01 136.39 250.98 136.39 248.48C136.39 246.22 134.74 244.36 132.58 244.01L127.96 250.77C128.75 252.11 130.2 253.01 131.86 253.01Z" fill="#FFB100"/>
<path d="M141.38 273.17C141.38 273.88 141.55 274.54 141.84 275.14C143.82 273.37 146.1 271.31 148.28 269.32C147.59 268.89 146.78 268.65 145.91 268.65C143.41 268.65 141.38 270.68 141.38 273.18V273.17Z" fill="#FFB100"/>
<path d="M134.54 268.31C134.54 265.81 132.51 263.78 130.01 263.78C129.32 263.78 128.67 263.94 128.08 264.22C129.14 266.8 130.52 269.61 132.31 272.21C133.64 271.42 134.54 269.97 134.54 268.31Z" fill="#FFB100"/>
<path d="M143.35 241.16C143.35 243.66 145.38 245.69 147.88 245.69C148.87 245.69 149.78 245.37 150.53 244.83L147.97 236.64C147.97 236.64 147.91 236.64 147.88 236.64C145.38 236.64 143.35 238.67 143.35 241.17V241.16Z" fill="#FFB100"/>
<path d="M93.6299 199.19C93.6299 199.19 80.7999 209.91 71.8999 217.21L82.4999 221.98L77.1499 228.83L135.26 281.12L105.82 205.1L93.6399 199.21L93.6299 199.19Z" fill="#006491"/>
<path d="M70.9899 183.46C70.9899 183.46 63.2099 188.36 53.6699 177.91C44.1299 167.45 40.5999 162.97 40.5999 162.97C40.5999 162.97 19.8599 176.85 17.8799 188.15C17.8799 188.15 29.7799 219.89 36.9999 224.75C36.9999 224.75 52.4599 239.2 62.5999 242.92C62.5999 242.92 45.0699 303.76 53.7199 346.92C53.7199 346.92 126.52 358.5 133.4 350.19L135.26 281.11L105.82 205.09C105.82 205.09 90.3699 199.91 70.9899 183.47V183.46Z" fill="#006491"/>
<path d="M247.01 214.67C247.01 214.67 273.44 243.21 262.09 265.99C250.74 288.77 226.6 303.03 213.49 303.77L198.32 274.55L212.33 261.87C212.33 261.87 216.46 258.57 214.82 253.66" fill="#006491"/>
<path d="M150.07 129.3C141.43 142.5 131.64 146.62 116.72 143.39C101.48 139.14 96.1 125.51 95.74 113.26C98.66 102.8 112.06 101.25 127.29 105.5C142.53 109.75 152.99 118.84 150.07 129.3Z" fill="#F6E3BE"/>
<path d="M149.76 127.27C143.33 136.9 131.11 144.24 119.62 141.04C108.13 137.84 99.1101 131.67 96.8301 114.45C102.96 101.35 119.82 95.9397 131.31 99.1397C142.8 102.34 150.29 114.64 149.76 127.27Z" fill="#00B3B8"/>
<path d="M112.02 108.14C112.02 108.14 103.74 110.36 103.85 124.12C103.96 137.88 120.73 139.17 124.22 138.37C127.71 137.57 131.81 134.77 130.53 131.7C129.25 128.63 127.31 127.67 122.17 127.87C117.03 128.07 110.48 123.4 113.78 113.74C117.08 104.08 112.02 108.14 112.02 108.14Z" fill="#00C5C2"/>
<path d="M116.05 101.55C116.05 101.55 121.82 100.71 118.92 103.03C118.92 103.03 110.67 106.99 107.73 114.6C104.79 122.21 108.29 129.16 115.93 131.03C115.93 131.03 124.87 134.07 130.04 120.41C135.21 106.75 134.89 108.36 141.01 108.88C141.01 108.88 132.05 93.5197 116.05 101.55Z" fill="#3A1A3A"/>
<path d="M146.62 119.52C145.26 121.52 139.86 122.1 135.64 119.23C131.42 116.36 129.49 111.84 131.33 109.13C133.17 106.42 140.58 106.58 143.74 110.53C148.46 116.43 148.46 116.82 146.62 119.53V119.52Z" fill="#F7F6EB"/>
<path d="M96.69 113.2C96.51 113.4 94.74 115.97 95.74 111.57C96.58 107.37 105.96 89.7597 128.39 92.2097C128.39 92.2097 154.84 95.6397 151.58 124.39C151.58 124.39 151.18 131.9 148.85 126.62C146.52 121.34 149.4 110.98 130.64 101.95C125.16 100.59 109.85 98.1497 96.69 113.2Z" fill="#3A1A3A"/>
<g opacity="0.45">
<path d="M128.49 133.58C131.494 133.58 133.93 131.144 133.93 128.14C133.93 125.135 131.494 122.7 128.49 122.7C125.486 122.7 123.05 125.135 123.05 128.14C123.05 131.144 125.486 133.58 128.49 133.58Z" fill="#F7F6EB"/>
</g>
<path d="M96.8601 112.52C97.3701 124.09 104.03 136.7 115.52 139.9C127.01 143.1 137.92 142.5 148.79 128.94C150.33 114.56 138.7 101.2 127.21 97.9897C115.72 94.7897 102.95 101.42 96.8601 112.51V112.52Z" fill="#00B3B8"/>
<path d="M139.05 115.68C139.05 115.68 144.98 121.86 137.77 133.59C130.56 145.31 115.53 137.72 112.96 135.24C110.39 132.76 108.33 128.24 111.01 126.26C113.69 124.28 115.85 124.48 120.14 127.31C124.44 130.14 132.46 129.54 134.64 119.56C136.82 109.58 139.04 115.68 139.04 115.68H139.05Z" fill="#00C5C2"/>
<path d="M139.02 107.96C139.02 107.96 134.52 104.26 135.8 107.74C135.8 107.74 140.81 115.39 139.38 123.43C137.95 131.47 131.36 135.6 123.86 133.25C123.86 133.25 114.64 131.22 117.28 116.86C119.92 102.5 119.37 104.04 113.87 101.32C113.87 101.32 129.49 92.82 139.02 107.97V107.96Z" fill="#3A1A3A"/>
<path d="M103.56 107.5C103.69 109.91 108.01 113.2 113.1 112.93C118.19 112.66 122.19 109.79 122.02 106.52C121.85 103.25 115.42 99.5499 110.68 101.29C103.59 103.89 103.39 104.23 103.56 107.5Z" fill="#F7F6EB"/>
<path d="M149.55 127.94C149.6 128.21 149.79 131.32 151.21 127.04C152.67 123.01 153.76 103.09 133.3 93.5697C133.3 93.5697 108.89 82.8197 96.8 109.1C96.8 109.1 93.25 115.73 97.98 112.42C102.71 109.11 105.6 98.7497 126.33 100.74C131.73 102.41 146.09 108.25 149.56 127.94H149.55Z" fill="#3A1A3A"/>
<g opacity="0.45">
<path d="M114.61 129.71C117.614 129.71 120.05 127.274 120.05 124.27C120.05 121.265 117.614 118.83 114.61 118.83C111.605 118.83 109.17 121.265 109.17 124.27C109.17 127.274 111.605 129.71 114.61 129.71Z" fill="#F7F6EB"/>
</g>
<path d="M243.32 141.83C237.19 156.16 229.14 163.1 214.06 162.53C198.5 161.02 190.92 148.69 188.45 136.83C189.49 126.15 202.25 122.33 217.81 123.84C233.37 125.35 244.35 131.15 243.32 141.83Z" fill="#F6E3BE"/>
<path d="M189.4 135.91C191.89 147.08 200.55 158.19 212.28 159.33C224.01 160.47 232.78 159.17 240.52 137.52C239.54 123.26 228.15 117.69 216.42 116.55C204.69 115.41 193.41 124.07 189.4 135.91Z" fill="#00B3B8"/>
<path d="M200.25 124.3C200.25 124.3 192.58 127.89 195.06 141.26C197.54 154.63 216.71 155.62 219.96 154.25C223.21 152.88 225.87 149.58 224.1 146.81C222.33 144.04 217.19 142.69 212.03 144.61C207.27 146.39 201.39 139.42 202.93 129.45C204.47 119.48 200.26 124.3 200.26 124.3H200.25Z" fill="#00C5C2"/>
<path d="M202.9 120.71C202.9 120.71 208.36 118.9 205.95 121.66C205.95 121.66 197.89 126.82 197.06 134.84C196.21 143.07 202.89 150.09 210.64 150.59C210.64 150.59 217.09 150.83 219.77 136.65C222.45 122.47 222.41 124.09 228.45 123.54C228.45 123.54 217.08 110.14 202.9 120.71Z" fill="#3A1A3A"/>
<path d="M194.83 127.84C195.37 130.17 200.14 132.62 205.05 131.48C209.96 130.34 213.35 126.86 212.62 123.71C211.89 120.56 205 118.07 200.69 120.58C194.24 124.34 194.1 124.69 194.83 127.85V127.84Z" fill="#F7F6EB"/>
<path d="M243.32 141.83C243.41 142.08 244.13 145.07 244.78 140.67C245.5 136.5 243.96 111.86 220.6 107.4C220.6 107.4 193.09 104.2 188.75 132.59C188.75 132.59 186.44 139.65 190.47 135.62C194.5 131.59 195.53 121.01 216.03 119.37C221.57 120.07 236.55 123.27 243.32 141.82V141.83Z" fill="#3A1A3A"/>
<g opacity="0.45">
<path d="M226.08 148.16C229.14 148.16 231.62 145.679 231.62 142.62C231.62 139.56 229.14 137.08 226.08 137.08C223.02 137.08 220.54 139.56 220.54 142.62C220.54 145.679 223.02 148.16 226.08 148.16Z" fill="#F7F6EB"/>
</g>
<path d="M72.2 92.73C72.2 92.73 107.02 56.82 113.6 55.12C120.18 53.42 88.61 20.54 88.61 20.54C88.61 20.54 78.76 86.09 72.2 92.73Z" fill="white"/>
<path d="M260.47 63.9598C260.47 63.9598 281.41 60.0998 290.6 55.5798L266.69 90.8798C266.12 91.6998 266.08 92.7798 266.59 93.6398L284.43 123.82C284.43 123.82 293.24 56.6398 290.74 54.3698C290.74 54.3698 276.61 61.8698 260.46 63.9598" fill="white"/>
<path d="M284.43 182.59C284.96 181.65 285.41 181.64 285.44 181.58C301.78 185.61 318.69 193.83 329.61 206.82C315.91 196.16 301.72 186.24 284.43 182.59Z" fill="#35363A"/>
<path d="M289.99 155.86C289.88 154.85 290.17 154.69 290.16 154.62C302.56 152.49 317.32 153.85 330.52 161.49C316.66 156.87 302.83 153.07 290 155.86H289.99Z" fill="#35363A"/>
<path d="M51.2001 137.66C37.9801 139 24.4701 143.18 12.8301 149.52C12.8301 149.52 35.7701 139.67 51.2301 138.44L51.1901 137.66H51.2001Z" fill="#35363A"/>
<path d="M289.99 168.46C290.1 168 289.89 167.41 289.99 166.95C292.59 166.51 327.93 176.06 326.34 178.81C314.44 174.5 302.61 170.23 289.99 168.46Z" fill="#35363A"/>
<path d="M52.3 125.73C38.1 126.9 24.83 128.57 11.7 134.5C11.7 134.5 37.35 127.72 52.29 126.3V125.73H52.3Z" fill="#35363A"/>
<path d="M55.2401 115.96C39.4401 115.38 28.1801 116.78 12.8301 120.25C23.4201 115.87 45.5701 113.54 56.7501 113.94C64.4301 114.21 79.3101 117.21 87.0401 119.75C75.7601 118.3 66.7701 116.39 55.2401 115.96Z" fill="#413731"/>
<path d="M179.9 132.52C180.15 134.56 183.21 139.01 167.18 141.02C165.9 147.72 168.18 158.18 176.97 157.11C179.48 156.81 183.73 151 184.3 153.64C185.15 157.51 167.34 164.53 164.95 147.69C157.78 162.11 145.36 154.09 146.28 150.73C147.13 147.62 148.83 156.04 156.96 153.73C158.92 153.17 162.4 149.22 163.21 147.32C167.83 136.46 160.19 141.66 156.64 132.2C156.17 131.06 156.37 129.88 156.83 129.43C163.43 122.89 174.73 125.82 179.9 132.5V132.52Z" fill="#22283D"/>
<path d="M178.68 135.48C177.45 138.94 166.55 141.41 160.7 135.78C157.72 132.92 158.87 132.09 158.71 131.6C163.95 126.5 174.98 129.79 178.69 135.48H178.68Z" fill="#FA9DB2"/>
<path d="M178.68 135.48C174.97 129.79 163.94 126.5 158.7 131.6C158.67 131.51 157.27 131.79 157.27 130.24C160.74 122.81 181.37 127.89 178.67 135.48H178.68Z" fill="#362447"/>
<path d="M188.45 136.83C188.45 136.83 195.29 167.25 222.65 161.89C222.65 161.89 233.96 160.45 240.53 147.57C240.53 147.57 242.2 145.42 244.79 146.9C246.77 147.72 243.23 147.18 242.28 150.08C241.46 151.51 234.67 162.34 222.66 163.57C211.24 164.74 193.31 161.89 188.46 136.82L188.45 136.83Z" fill="#3A1A3A"/>
<path d="M150.07 129.3C150.07 129.3 136.46 151.09 113.57 141.55C113.57 141.55 101.07 136.84 97.1299 122.93C97.1299 122.93 95.5199 119.9 92.8399 120.25C91.6899 120.95 95.7399 122.36 96.6199 126.16C97.1499 127.72 103.07 140.28 114.61 143.82C125.59 147.18 141.35 146.45 150.07 129.31V129.3Z" fill="#3A1A3A"/>
<path d="M138.35 129.71C139.907 129.71 141.17 128.447 141.17 126.89C141.17 125.332 139.907 124.07 138.35 124.07C136.793 124.07 135.53 125.332 135.53 126.89C135.53 128.447 136.793 129.71 138.35 129.71Z" fill="#F7F6EB"/>
<path d="M221.43 142.62C221.43 144.18 220.17 145.44 218.61 145.44C217.05 145.44 215.79 144.18 215.79 142.62C215.79 141.06 217.05 139.8 218.61 139.8C220.17 139.8 221.43 141.06 221.43 142.62Z" fill="#F7F6EB"/>
<path d="M242.23 160.63C241.79 165.71 252.92 168.38 261.78 169.15C270.64 169.92 280.81 168.78 281.25 163.71C281.69 158.63 273.41 153.29 264.55 152.52C255.69 151.75 242.68 155.56 242.23 160.64V160.63Z" fill="#F85A00"/>
<path d="M275.77 109.17C275.77 109.17 269.72 111.69 258.1 109.22C246.48 106.76 240.54 112.47 249.13 119.54C257.72 126.61 278.59 124.1 278.97 123.81C279.35 123.52 284.44 123.81 284.44 123.81L275.78 109.16L275.77 109.17Z" fill="#E87900"/>
<path d="M284.43 123.82C284.43 123.82 284.01 119.95 268.78 125.63C268.78 125.63 266.62 125.79 265.94 130.29C265.25 134.79 258.11 133.04 255.22 134.64C252.33 136.24 249.85 141.58 255.22 142.62C260.59 143.66 267.66 144.31 273.33 141.09C279 137.87 287.8 139.95 287.8 139.95L284.43 123.82Z" fill="#EC861E"/>
<path d="M284.08 136.29C284.08 136.29 276.62 132.43 273.15 136.78C269.68 141.13 280.73 140.86 281.41 144.14C282.09 147.42 289.97 149.5 289.97 149.5C289.97 149.5 294.05 138.22 284.09 136.28L284.08 136.29Z" fill="#E87900"/>
<path d="M98.3799 141.33C97.1099 147.03 85.0399 145.86 75.8899 143.46C66.7399 141.06 56.9099 136.09 58.1799 130.4C59.4499 124.71 69.5599 121.91 78.7099 124.31C87.8599 126.71 99.6399 135.64 98.3699 141.33H98.3799Z" fill="#F85A00"/>
<path d="M73.6399 131.62C73.7699 133.27 73.8999 134.92 74.0299 136.57C74.0499 136.77 75.4099 136.54 75.3799 136.21C75.2499 134.56 75.1199 132.91 74.9899 131.26C74.9699 131.06 73.6099 131.29 73.6399 131.62Z" fill="#251714"/>
<path d="M76.96 131.16C76.96 133.17 76.96 135.17 76.96 137.18C76.96 137.48 77.31 137.51 77.55 137.48C77.75 137.46 78.32 137.3 78.32 137.01C78.32 135 78.32 133 78.32 130.99C78.32 130.69 77.97 130.66 77.73 130.69C77.53 130.71 76.96 130.87 76.96 131.16Z" fill="#251714"/>
<path d="M79.5598 133.38C79.8098 135.15 80.0498 136.91 80.2998 138.68C80.3398 138.99 80.8798 138.96 81.0798 138.9C81.3398 138.83 81.6898 138.63 81.6498 138.31C81.3998 136.54 81.1598 134.78 80.9098 133.01C80.8698 132.7 80.3298 132.73 80.1298 132.79C79.8698 132.86 79.5198 133.06 79.5598 133.38Z" fill="#251714"/>
<path d="M258.36 162.59C258.68 164.44 258.99 166.28 259.31 168.13C259.36 168.45 260.73 168.15 260.66 167.77C260.34 165.92 260.03 164.08 259.71 162.23C259.66 161.91 258.29 162.21 258.36 162.59Z" fill="#251714"/>
<path d="M260.54 163.82L261.83 168.42C261.98 168.95 263.33 168.59 263.18 168.06C262.75 166.53 262.32 164.99 261.89 163.46C261.74 162.93 260.39 163.29 260.54 163.82Z" fill="#251714"/>
<path d="M262.97 162.29C263.56 164.23 264.42 166.09 265.52 167.8C265.76 168.17 267.02 167.67 266.87 167.44C265.77 165.73 264.91 163.88 264.32 161.93C264.21 161.56 262.86 161.93 262.97 162.29Z" fill="#251714"/>
<g opacity="0.3">
<path d="M175.47 192.19C175.47 195.39 173.28 198.26 165.79 198.26C158.3 198.26 150.08 194.83 150.08 191.63C150.08 188.43 157.82 194.83 165.31 194.83C172.8 194.83 175.48 188.99 175.48 192.19H175.47Z" fill="#BABEBA"/>
</g>
<path d="M173.56 191.78C172.55 193.08 170.69 193.29 169.17 193.5C167.19 193.77 165.19 193.83 163.2 193.69C159.24 193.4 155.37 192.26 151.86 190.39C151.44 190.17 150.8 190.32 150.42 190.57C150.13 190.76 149.82 191.18 150.25 191.41C156.52 194.74 163.89 195.77 170.85 194.36C172.61 194 174.32 193.31 175.45 191.86C175.75 191.47 175.19 191.24 174.89 191.22C174.4 191.19 173.86 191.4 173.56 191.79V191.78Z" fill="#3A1A3A"/>
<path d="M81.5499 62.3998L105.22 58.0398L112.2 48.5698C112.2 48.5698 115.16 52.7898 114.31 54.6398C114.31 54.6398 114.08 55.0798 112.69 55.4798C111.3 55.8798 102.93 62.8098 98.3799 67.0698C93.8299 71.3298 77.1599 87.6998 77.1599 87.6998L81.5599 62.3998H81.5499Z" fill="#FFC3C5"/>
<path d="M280.54 70.4299C280.54 70.4299 272.05 91.9499 273.66 94.2599C275.28 96.5699 285.86 107.29 285.86 107.29L284.43 123.81L266.25 93.6899C266.25 93.6899 265.51 91.4799 267.21 89.6599C268.91 87.8399 280.53 70.4199 280.53 70.4199L280.54 70.4299Z" fill="#FFC3C5"/>
<path d="M98.0801 106.37C98.0801 106.37 112.77 88.4201 131.03 95.4001C131.03 95.4001 151.4 101.04 151.58 124.38C151.58 124.38 157.51 98.6901 128.46 92.1101C128.46 92.1101 109.84 85.9701 98.0801 106.37Z" fill="#251714"/>
<path d="M78.8799 303.41C78.8799 303.41 79.4699 291.23 90.3999 282.71L94.5599 286.51L98.8699 279.58C98.8699 279.58 109.03 291.51 106.41 304.71" fill="#24D6E4"/>
<path d="M260.71 338.34C260.71 338.34 262.43 253.53 244.91 216.67C244.91 216.67 228.13 222.01 197.6 221.6L135.26 281.11L139.07 350.26C139.07 350.26 145.11 355.46 179.47 354.24C213.83 353.02 260.71 338.34 260.71 338.34Z" fill="#006491"/>
<path d="M201.02 275.14C201.02 275.14 187.77 278.59 186.73 285.4C186.73 285.4 185.54 289.61 187.54 292.06C187.54 292.06 186.62 294.84 188 296.52C189.38 298.2 190.77 299.08 190.77 299.08C190.77 299.08 189.15 304.31 194.46 304.95C199.77 305.59 210.43 304.18 212.34 300.04" fill="#FF991B"/>
<path d="M244.68 143.05C246.1 142.79 247.53 142.52 248.95 142.26C249.55 142.15 249.95 141.39 249.76 140.83C249.55 140.19 248.97 139.9 248.33 140.02C246.91 140.28 245.48 140.55 244.06 140.81C243.46 140.92 243.06 141.68 243.25 142.24C243.46 142.88 244.04 143.17 244.68 143.05Z" fill="#3A1A3A"/>
<path d="M95.96 111.83C95.56 111.68 95.16 111.54 94.77 111.36C95.07 111.49 94.71 111.33 94.66 111.31C94.58 111.28 94.5 111.24 94.43 111.21C94.24 111.12 94.04 111.03 93.85 110.94C93.09 110.58 92.36 110.19 91.64 109.76C91.11 109.45 90.34 109.62 90.05 110.18C89.76 110.74 89.91 111.44 90.47 111.77C92.02 112.69 93.66 113.45 95.35 114.07C95.92 114.28 96.65 113.83 96.78 113.26C96.93 112.6 96.58 112.05 95.97 111.83H95.96Z" fill="#3A1A3A"/>
<path d="M188.9 62.9398C189.01 63.0098 189.32 64.3798 190.28 65.0598C190.51 65.1098 193.82 63.5698 194.3 63.2998C217.44 64.6298 201.84 114.87 188.16 94.3798C186.77 94.0598 186.43 99.9098 183.77 102.18C178.46 106.71 162.39 100.48 167.25 89.4198C162.98 93.3598 153.81 92.2598 151.4 86.5798C148.44 79.6198 158.86 59.6298 165.09 75.9998C172.91 59.8198 175.34 53.9998 188.9 62.9298V62.9398Z" fill="#E87900"/>
<path d="M41.89 164.97C41.54 163.94 41.02 162.95 40.5 162.01C39.11 159.48 37.38 157.14 35.43 155.02C34.84 154.38 34.05 153.79 33.58 153.07C33.23 152.53 32.9 152 32.47 151.52C31.7 150.66 30.72 149.96 29.65 149.51C27.49 148.59 25 148.61 22.76 149.21C20.52 149.81 18.18 151.01 16.97 153.01L17.7 152.51C15.6 153.25 13.59 154.5 12.27 156.33C11.86 156.9 11.51 157.53 11.26 158.18C11.18 158.39 11.11 158.61 11.05 158.83C10.99 159.09 11.05 158.99 10.88 159.17H13.38C13.38 159.17 13.4 159.13 13.41 159.12C12.58 159.12 11.75 159.12 10.91 159.13C10.74 159.32 10.57 159.51 10.4 159.71L11.49 159.1C7.24001 160.36 4.37 164.79 5.62 169.17C5.99 170.46 6.69 171.66 7.54 172.69C8.04 173.3 8.68 173.77 9.19 174.35C9.47 174.67 9.56 175.2 9.71 175.59C9.88 176.05 10.06 176.51 10.24 176.96C11.24 179.42 12.41 181.8 13.82 184.05C14.42 185.01 15.05 185.99 15.8 186.84C16.37 187.48 18.94 186.53 18.32 185.82C17.7 185.11 17.2 184.36 16.71 183.6C15.35 181.51 14.23 179.27 13.26 176.98C12.94 176.21 12.63 175.44 12.34 174.66C12.2 174.29 12.11 173.78 11.87 173.46C11.6 173.11 11.13 172.82 10.82 172.5C9.86 171.53 9.05 170.41 8.55 169.14C7.78 167.15 7.86 164.89 8.91 163.01C9.18 162.52 9.51 162.07 9.88 161.66C10.03 161.49 10.16 161.37 10.36 161.19C10.45 161.12 10.53 161.04 10.62 160.97C10.65 160.95 11 160.69 10.82 160.81C11.03 160.67 11.25 160.54 11.48 160.43C11.11 160.61 12.2 160.18 11.7 160.34C12.32 160.14 12.7 159.9 13.13 159.42C13.22 159.32 13.31 159.22 13.39 159.12C13.81 158.64 13.03 158.42 12.68 158.42C12.05 158.42 11.32 158.65 10.89 159.13C10.88 159.14 10.87 159.16 10.86 159.17C10.45 159.66 11.21 159.87 11.57 159.87C12.22 159.87 12.91 159.63 13.36 159.16C13.84 158.65 13.91 157.76 14.23 157.13C14.77 156.1 15.64 155.15 16.62 154.49C16.94 154.27 17.29 154.08 17.64 153.91C18.08 153.7 18.59 153.59 19.01 153.34C19.36 153.14 19.5 152.86 19.73 152.56C19.81 152.46 19.89 152.35 19.98 152.25C20.03 152.19 20.25 151.96 20.18 152.03C20.35 151.86 20.54 151.7 20.74 151.55C20.85 151.46 20.97 151.37 21.09 151.29C20.92 151.4 21.26 151.19 21.31 151.16C21.44 151.08 21.57 151.01 21.7 150.94C21.77 150.9 21.84 150.87 21.9 150.84C21.67 150.94 21.85 150.86 21.9 150.84C22.02 150.78 22.15 150.73 22.28 150.68C22.35 150.65 22.85 150.47 22.54 150.58C22.83 150.49 23.12 150.41 23.41 150.34C23.57 150.3 23.36 150.34 23.34 150.35C23.42 150.33 23.5 150.32 23.58 150.31C23.76 150.28 23.94 150.26 24.12 150.23C24.41 150.19 24.12 150.23 24.33 150.21C24.49 150.21 24.66 150.2 24.82 150.2C25.21 150.2 25.28 150.2 25.63 150.25C26.88 150.42 28.07 150.91 29.05 151.72C29.64 152.21 30.16 152.78 30.59 153.41C30.84 153.77 31.01 154.15 31.33 154.45C31.76 154.86 32.17 155.28 32.58 155.72C33.93 157.15 35.17 158.68 36.27 160.31C37.4 161.97 38.5 163.78 39.15 165.69C39.44 166.55 42.13 165.78 41.85 164.97H41.89Z" fill="#251714"/>
<path d="M11.6001 160.17C13.1101 159.99 14.8201 160.45 16.0801 161.28C17.5001 162.22 18.3701 163.84 18.5601 165.51C18.6301 166.09 19.9801 165.77 19.9101 165.15C19.7001 163.29 18.6401 161.48 17.0401 160.47C15.4401 159.46 13.5101 159.02 11.7301 159.23C11.4501 159.26 11.0201 159.42 10.9801 159.76C10.9401 160.1 11.3401 160.2 11.6001 160.17Z" fill="#251714"/>
<path d="M17.53 153.64C18.38 153.68 19.21 153.98 19.97 154.34C20.81 154.73 21.62 155.22 22.3 155.85C23.82 157.24 24.57 159.35 25.15 161.27C25.3 161.78 26.65 161.41 26.5 160.91C25.88 158.86 25.05 156.59 23.38 155.16C21.93 153.92 19.96 152.91 18.03 152.82C17.74 152.81 17.29 152.92 17.14 153.2C16.99 153.48 17.27 153.63 17.52 153.64H17.53Z" fill="#251714"/>
<path d="M177.55 50.5099C165.97 49.4599 154.41 47.0999 143.13 44.3799C134.17 42.2199 125.49 39.3599 117.13 35.4399C110.92 32.5299 104.93 29.1299 99.23 25.3199C96.59 23.5599 93.9601 21.7399 91.5301 19.6899C90.6201 18.9299 87.3101 19.7199 86.9701 20.9099C84.6401 29.1799 82.6901 37.5599 80.8601 45.9499C79.1201 53.9399 77.5901 61.9799 76.1401 70.0299C75.1901 75.2899 74.33 80.5799 73.24 85.8199C72.93 87.2899 72.6101 88.7699 72.1601 90.2099C72.0001 90.6999 71.8301 91.1999 71.6101 91.6699C71.5301 91.8399 71.4401 91.9999 71.3601 92.1699C71.2001 92.4699 71.4601 92.0399 71.1901 92.4099C71.0901 92.5499 70.6801 92.9099 71.1601 92.4899C71.1201 92.5199 71.0801 92.5499 71.0501 92.5799C70.8901 92.7099 70.74 92.8399 70.59 92.9799C70.04 93.4599 69.4901 93.9599 68.9601 94.4699C64.0101 99.1799 59.73 104.63 56.24 110.49C51.02 119.25 47.8101 129.23 48.0101 139.49C48.1301 145.58 49.4901 151.59 51.8201 157.2C52.7901 159.54 54.0201 161.74 55.1401 164C56.6001 166.96 58.4301 169.75 60.3601 172.43C64.0801 177.6 68.4201 182.32 73.1401 186.59C79.8601 192.66 87.3901 197.81 95.4101 202.02C105.97 207.57 117.29 211.54 128.92 214.14C136.27 215.79 143.71 216.79 151.18 217.69C158.72 218.6 166.26 219.44 173.81 220.16C185.34 221.26 196.93 222.11 208.52 222.06C216.67 222.02 224.88 221.5 232.87 219.84C239.71 218.42 246.31 216.2 252.6 213.17C261.37 208.96 269.64 203.57 276.47 196.6C285.04 187.85 291.1 176.7 293.13 164.58C294.19 158.23 294.2 151.71 293.25 145.35C292.69 141.61 291.68 138.05 290.7 134.42C290.15 132.41 289.61 130.4 289.06 128.39C288.88 127.72 288.7 127.06 288.52 126.39C288.48 126.23 288.26 125.36 288.31 125.94C288.23 124.97 288.5 123.84 288.59 122.87C288.8 120.61 289 118.35 289.22 116.09C290.01 107.7 290.96 99.3399 291.88 90.9699C292.94 81.3299 294.01 71.5899 294.05 61.8799C294.05 60.1999 294.03 58.5099 293.86 56.8399C293.76 55.8199 293.65 54.6599 293.13 53.7499C292.46 52.5499 289.72 53.6299 288.93 54.1999C288.74 54.3399 288.54 54.4599 288.34 54.5899C288.23 54.6599 288.13 54.7199 288.02 54.7899C287.69 54.9999 288.46 54.5399 288.02 54.7899C287.65 54.9999 287.28 55.2199 286.91 55.4299C285.97 55.9499 285.02 56.4299 284.05 56.8799C283.95 56.9299 283.09 57.3199 283.53 57.1199C283.21 57.2599 282.89 57.3999 282.57 57.5399C281.87 57.8399 281.17 58.1199 280.46 58.3899C272.5 61.4299 263.42 62.8499 254.59 62.8899C239.87 62.9499 225.68 59.2899 211.39 56.2399C200.2 53.8499 188.93 51.9099 177.57 50.5299C176.49 50.3999 175.09 50.7599 174.23 51.4299C173.5 51.9999 173.61 52.5799 174.57 52.6999C185.13 53.9799 195.62 55.7299 206.02 57.9199C213.64 59.5199 221.21 61.3499 228.86 62.7899C245.85 65.9799 263.54 66.2299 280.06 60.5599C284.36 59.0799 288.87 57.2499 292.6 54.5899C291.2 54.7399 289.8 54.8899 288.4 55.0399C288.91 55.9499 289.02 57.1099 289.13 58.1299C289.31 59.8699 289.33 61.6299 289.32 63.3899C289.29 68.1799 288.95 72.9799 288.56 77.7499C287.89 85.8199 286.93 93.8499 286.03 101.89C285.46 106.96 284.99 112.04 284.52 117.12C284.22 120.28 283.69 123.52 283.64 126.7C283.63 127.57 284.03 128.49 284.26 129.33C284.79 131.27 285.31 133.21 285.84 135.15C286.76 138.55 287.76 141.91 288.35 145.38C290.45 157.85 288.74 170.68 282.97 181.96C277.2 193.24 268.51 201.65 258.12 207.82C255.33 209.48 252.47 211.03 249.53 212.43C249.2 212.59 248.87 212.74 248.55 212.89C248.37 212.97 248.2 213.05 248.02 213.13C247.97 213.15 247.71 213.27 247.99 213.15C248.31 213.01 247.87 213.2 247.8 213.23C247.09 213.54 246.37 213.85 245.65 214.14C244.2 214.73 242.73 215.27 241.24 215.77C241.15 215.8 240.53 216 240.9 215.88C241.27 215.76 240.64 215.96 240.56 215.99C240.18 216.11 239.8 216.23 239.41 216.34C238.63 216.57 237.85 216.79 237.07 216.99C236.29 217.19 235.46 217.4 234.65 217.58C234.44 217.63 234.24 217.67 234.03 217.72C233.46 217.85 234.31 217.67 233.87 217.76C233.43 217.85 233.03 217.93 232.61 218.01C230.86 218.35 229.09 218.63 227.32 218.87C226.39 218.99 225.45 219.11 224.52 219.21C224.08 219.26 224.4 219.22 224.49 219.21C224.39 219.22 224.28 219.23 224.18 219.24C223.94 219.26 223.69 219.29 223.45 219.31C222.96 219.36 222.46 219.4 221.97 219.44C212.39 220.2 202.75 219.92 193.17 219.33C179.03 218.45 164.93 216.87 150.88 215.15C137.68 213.53 124.71 210.81 112.28 205.97C102.87 202.31 93.9001 197.53 85.7501 191.55C79.7501 187.15 74.2 182.11 69.34 176.47C66.31 172.95 63.59 169.29 61.27 165.29C59.16 161.64 57.1901 157.76 55.7501 153.83C51.8501 143.18 51.9001 131.71 55.6401 121.04C58.4601 112.98 63.0701 105.62 68.6501 99.1999C70.2801 97.3199 72.0001 95.5199 73.8201 93.8199C74.0601 93.5899 74.31 93.3699 74.56 93.1499C74.98 92.7699 74.27 93.3899 74.7 93.0299C75.22 92.5999 75.6301 92.1999 75.9801 91.6199C77.2701 89.4899 77.64 86.7099 78.13 84.3199C79.24 78.8299 80.1501 73.3099 81.1501 67.7999C83.6601 53.9799 86.5201 40.2399 90.0001 26.6299C90.5501 24.4799 91.1101 22.3399 91.7101 20.2099C90.1901 20.6199 88.67 21.0199 87.15 21.4299C94.16 27.3199 102.36 32.0499 110.53 36.1099C126.75 44.1799 144.51 48.1699 162.3 51.0499C166.38 51.7099 170.49 52.3399 174.6 52.7099C175.69 52.8099 177.06 52.4999 177.94 51.8099C178.65 51.2599 178.58 50.6299 177.6 50.5399L177.55 50.5099Z" fill="#251714"/>
<path d="M133.68 214.98C132.5 217.89 131.53 220.91 130.77 223.95C130.23 226.1 129.77 228.32 129.77 230.55C129.77 231.9 129.88 233.5 130.9 234.5C132.75 236.31 135.68 236.68 138.14 236.69L137.36 235.56C136 237.47 134.64 239.38 133.28 241.28C130.96 244.53 128.65 247.77 126.33 251.02C125.66 251.96 124.99 252.9 124.32 253.84C124.13 254.11 123.88 254.38 123.95 254.75C123.99 254.97 124.12 255.2 124.2 255.41C125.59 259 126.98 262.6 128.38 266.19C130.17 270.82 131.96 275.45 133.76 280.07L134.26 281.37C134.51 282.03 135.48 282.02 135.96 281.61C138.29 279.56 140.61 277.49 142.92 275.41C146.71 272 150.52 268.59 154.17 265.03C155.14 264.08 156.28 263.12 157.04 261.98C157.33 261.54 157.2 261.26 157.06 260.83L156.53 259.14C155.15 254.73 153.77 250.32 152.39 245.9C151.7 243.71 151.02 241.52 150.33 239.33C149.96 238.13 149.64 236.89 149.2 235.72C149.18 235.67 149.16 235.61 149.15 235.55L147.8 236.6C150.25 237.01 152.99 236.81 155.31 235.92C157.11 235.23 158.65 233.99 159.5 232.24C160.09 231.02 160.35 229.59 160.57 228.26C160.82 226.74 160.92 225.21 160.92 223.67C160.92 221.84 160.81 219.95 160.44 218.15C160.38 217.85 160.04 217.68 159.77 217.64C156.99 217.27 154.2 216.9 151.42 216.52C146.98 215.93 142.54 215.33 138.09 214.74C137.06 214.6 136.04 214.47 135.01 214.33C134.53 214.27 133.89 214.48 133.7 214.97C133.51 215.46 133.88 215.83 134.34 215.89C137.12 216.26 139.91 216.63 142.69 217.01C147.13 217.6 151.57 218.2 156.02 218.79C157.05 218.93 158.07 219.06 159.1 219.2L158.43 218.69C158.69 219.96 158.8 221.28 158.85 222.57C158.96 225.38 158.77 228.32 157.93 231.02C157.42 232.64 156.36 233.76 154.92 234.4C154.55 234.57 154.45 234.6 154.03 234.72C153.61 234.84 153.22 234.93 152.81 235C152.61 235.03 153.05 234.97 152.72 235.01C152.62 235.03 152.51 235.04 152.41 235.05C152.24 235.07 152.07 235.09 151.9 235.1C151.55 235.13 151.19 235.15 150.84 235.16C150.66 235.16 150.49 235.16 150.31 235.16C150.22 235.16 149.75 235.14 150.01 235.16C149.75 235.15 149.48 235.13 149.22 235.11C148.98 235.09 148.75 235.06 148.51 235.02C147.97 234.93 146.94 235.36 147.16 236.07C148.07 238.98 148.98 241.89 149.89 244.8C151.34 249.42 152.78 254.04 154.23 258.66C154.56 259.72 154.9 260.79 155.23 261.85L155.27 261.44C155.46 261.12 155.3 261.38 155.24 261.46C155.17 261.54 155.11 261.63 155.04 261.71C154.86 261.93 154.66 262.14 154.47 262.35C154.22 262.61 153.97 262.87 153.72 263.13C153.57 263.28 153.43 263.43 153.28 263.57C153.24 263.61 153.03 263.82 153.16 263.69C153.07 263.78 152.97 263.87 152.88 263.96C151.21 265.59 149.5 267.17 147.79 268.75C144.24 272.02 140.65 275.24 137.04 278.44C136.24 279.15 135.44 279.86 134.63 280.57C135.2 280.65 135.76 280.73 136.33 280.81C134.73 276.67 133.13 272.54 131.52 268.4C130 264.47 128.48 260.55 126.96 256.62C126.65 255.81 126.33 254.99 126.02 254.18L125.86 254.79C127.35 252.7 128.84 250.62 130.33 248.53C132.72 245.19 135.1 241.84 137.49 238.5C138.03 237.74 138.58 236.97 139.12 236.21C139.58 235.56 138.99 235.09 138.34 235.08C136.28 235.07 134.16 234.69 132.62 233.37C132.43 233.21 132.67 233.45 132.55 233.29C132.51 233.24 132.46 233.19 132.43 233.14C132.31 232.97 132.33 232.98 132.25 232.77C131.97 232.02 131.89 231.22 131.89 230.44C131.88 228.33 132.3 226.21 132.8 224.17C133.28 222.19 133.89 220.23 134.56 218.3C134.92 217.27 135.29 216.24 135.7 215.22C136.15 214.11 134.11 214.04 133.75 214.94L133.68 214.98Z" fill="#251714"/>
<path d="M118.28 231.78C122.18 229.67 126.08 227.55 129.98 225.44C130.53 225.14 131.08 224.85 131.63 224.55C132.45 224.1 133.16 222.8 132.05 222.24C130.82 221.62 129.33 222.09 128.21 222.69C124.31 224.8 120.41 226.92 116.51 229.03L114.86 229.92C114.04 230.37 113.33 231.67 114.44 232.23C115.67 232.85 117.16 232.38 118.28 231.78Z" fill="#251714"/>
<path d="M158.52 219.05C159.74 221.62 160.96 224.18 162.19 226.75C164.13 230.82 166.07 234.89 168.01 238.96C168.46 239.9 168.9 240.84 169.35 241.78C169.69 242.5 171.32 241.84 171.76 241.53C174.85 239.32 177.93 237.12 181.02 234.91C185.93 231.4 190.85 227.89 195.76 224.37C196.88 223.57 198 222.77 199.12 221.97C199.54 221.67 199.47 221.27 198.92 221.23C194.61 220.87 190.3 220.51 185.99 220.16C179.13 219.59 172.27 219.02 165.41 218.45C163.85 218.32 162.29 218.19 160.73 218.06C160.09 218.01 159.34 218.18 158.82 218.57C158.41 218.88 158.46 219.27 159.02 219.31C163.33 219.67 167.64 220.03 171.95 220.38C178.81 220.95 185.67 221.52 192.53 222.09C194.09 222.22 195.65 222.35 197.21 222.48L197.01 221.74C193.92 223.95 190.84 226.15 187.75 228.36C182.84 231.87 177.92 235.38 173.01 238.9C171.89 239.7 170.77 240.5 169.65 241.3C170.45 241.22 171.25 241.14 172.06 241.05C170.84 238.48 169.62 235.92 168.39 233.35C166.45 229.28 164.51 225.21 162.57 221.14C162.12 220.2 161.68 219.26 161.23 218.32C160.86 217.55 158.24 218.44 158.53 219.04L158.52 219.05Z" fill="#251714"/>
<path d="M91.44 198.63C86.57 202.83 81.67 207 76.73 211.13C74.68 212.85 72.62 214.56 70.55 216.26C69.64 217 69.6 218.08 70.74 218.59C73.83 219.98 76.93 221.37 80.02 222.77L81.33 223.36C81.15 222.69 80.97 222.03 80.79 221.36C79.01 223.64 77.23 225.92 75.44 228.21C74.95 228.84 75 229.49 75.58 230.01C77.51 231.75 79.45 233.49 81.38 235.23C85.99 239.38 90.61 243.53 95.22 247.69C100.83 252.74 106.44 257.78 112.05 262.83C116.87 267.17 121.7 271.51 126.52 275.85C128.13 277.29 129.73 278.74 131.34 280.18C132.09 280.85 132.81 281.58 133.59 282.21C133.62 282.24 133.66 282.27 133.69 282.3C134.28 282.83 135.52 282.67 136.15 282.34C136.71 282.04 137.56 281.33 137.27 280.58C136.91 279.65 136.55 278.72 136.19 277.78C135.23 275.31 134.27 272.83 133.32 270.36C131.94 266.81 130.57 263.25 129.19 259.7C127.57 255.52 125.96 251.35 124.34 247.17C122.65 242.81 120.97 238.46 119.28 234.1C117.72 230.06 116.15 226.02 114.59 221.98C113.32 218.7 112.05 215.42 110.78 212.14L108.39 205.96C108.22 205.53 108.06 205.1 107.89 204.67C107.71 204.22 107.45 203.92 106.97 203.7C106.61 203.53 106.23 203.39 105.86 203.23C102.19 201.68 98.52 200.13 94.85 198.58L93.94 198.2C93.02 197.81 91.7 198.21 91.08 198.97C90.46 199.73 90.74 200.6 91.62 200.97C95.42 202.58 99.22 204.18 103.02 205.79L104.65 206.48L103.79 205.64C104.05 206.32 104.31 206.99 104.58 207.67C105.29 209.51 106.01 211.36 106.72 213.2C107.78 215.93 108.83 218.65 109.89 221.38C111.18 224.71 112.47 228.03 113.76 231.36C115.17 235 116.58 238.65 117.99 242.29C119.41 245.97 120.84 249.65 122.26 253.33C123.59 256.76 124.92 260.19 126.25 263.62C127.37 266.52 128.5 269.42 129.62 272.32C130.43 274.4 131.23 276.49 132.04 278.57C132.42 279.56 132.77 280.56 133.19 281.53C133.21 281.57 133.22 281.61 133.24 281.66L136.82 279.93C134.89 278.19 132.95 276.45 131.02 274.71C126.41 270.56 121.79 266.41 117.18 262.25C111.57 257.2 105.96 252.16 100.35 247.11C95.53 242.77 90.7 238.43 85.88 234.09C84.27 232.65 82.67 231.2 81.06 229.76C80.31 229.09 79.59 228.36 78.81 227.73C78.78 227.7 78.74 227.67 78.71 227.64L78.85 229.44C80.63 227.16 82.41 224.88 84.2 222.59C84.81 221.81 84.55 220.99 83.66 220.59C80.57 219.2 77.47 217.81 74.38 216.41L73.07 215.82L73.26 218.15C79.77 212.82 86.18 207.37 92.56 201.88C93.09 201.43 93.62 200.97 94.15 200.51C94.8 199.95 95.2 198.99 94.36 198.38C93.57 197.81 92.17 198 91.45 198.62L91.44 198.63Z" fill="#251714"/>
<path d="M69.4301 183.35C69.3401 183.41 69.9601 183.09 69.5601 183.27C69.4801 183.31 69.3901 183.35 69.3101 183.39C68.9601 183.58 69.8401 183.21 69.3001 183.39C69.1601 183.44 69.0101 183.49 68.8701 183.55C69.5801 183.27 68.9601 183.51 68.7901 183.56C68.2401 183.73 69.2101 183.5 68.6201 183.6C68.4901 183.62 68.3601 183.64 68.2301 183.67C67.7701 183.75 68.6601 183.64 68.1801 183.67C67.1401 183.76 66.2101 183.72 64.9701 183.42C63.3401 183.02 61.8301 182.3 60.4201 181.39C56.5401 178.86 53.5901 175.01 50.5301 171.58C48.5401 169.34 46.5601 167.09 44.6301 164.8C43.9201 163.96 43.2001 163.12 42.5201 162.25C42.2601 161.92 41.3001 162.09 40.9801 162.14C40.3001 162.25 39.6501 162.49 39.0601 162.85C34.0201 165.9 29.2101 169.53 24.8701 173.51C21.7501 176.37 18.7201 179.57 16.7101 183.32C16.2701 184.14 15.8801 184.99 15.5901 185.88C15.4101 186.42 15.0601 187.23 15.1401 187.79C15.2101 188.28 15.5701 188.85 15.7601 189.3C18.6401 196.24 21.7501 203.1 25.2101 209.78C28.3501 215.85 31.7501 221.9 36.4601 226.91C39.1001 229.72 41.9201 232.37 44.9001 234.81C48.7501 237.96 52.9501 240.85 57.6001 242.68C58.7001 243.11 59.8301 243.47 60.9801 243.74L60.6301 243.26C58.4301 250.91 56.7301 258.74 55.1901 266.55C51.9001 283.21 49.6301 300.18 49.3601 317.18C49.1901 327.31 49.7501 337.51 51.7301 347.46C51.8001 347.62 51.9301 347.71 52.1001 347.74C58.4701 348.75 64.8601 349.63 71.2501 350.45C83.4101 352.01 95.6301 353.36 107.88 353.89C113.14 354.12 118.45 354.24 123.7 353.76C125.82 353.57 127.94 353.28 130 352.73C131.69 352.28 133.47 351.66 134.82 350.51C135.46 349.96 135.46 349.56 135.48 348.81L135.58 345.27C135.7 340.85 135.82 336.43 135.94 332.02C136.26 320.31 136.57 308.6 136.89 296.9C137 292.67 137.12 288.44 137.23 284.21C137.26 283.17 137.29 282.13 137.31 281.09C137.31 280.79 137.31 280.62 137.23 280.35C136.55 278.16 135.56 276.03 134.73 273.89C133.05 269.56 131.37 265.23 129.7 260.89C125.43 249.85 121.15 238.82 116.88 227.78C114.07 220.53 111.26 213.28 108.46 206.03C108.26 205.51 108.22 205.2 107.71 204.94C106.58 204.37 105.57 204.05 104.5 203.55C97.9801 200.5 91.7701 196.76 85.8501 192.68C81.3801 189.6 77.0801 186.28 72.9401 182.77C72.3401 182.26 70.9501 182.72 70.3201 182.95C70.0201 183.06 68.5501 183.69 69.1301 184.18C79.1601 192.67 90.2501 200.35 102.31 205.7C103.02 206.02 103.74 206.33 104.47 206.61L104.1 206.33C104.94 208.51 105.79 210.68 106.63 212.86L112.83 228.86C115.41 235.53 117.99 242.19 120.58 248.86C123.01 255.13 125.43 261.39 127.86 267.66C129.43 271.7 130.99 275.74 132.56 279.78C132.79 280.36 133.18 281.03 133.29 281.65C133.4 282.27 133.25 283.01 133.24 283.63C133.11 288.33 132.99 293.04 132.86 297.74C132.67 304.73 132.48 311.73 132.29 318.72C132.11 325.44 131.93 332.16 131.75 338.87C131.65 342.65 131.55 346.43 131.44 350.2V350.73C131.49 350.59 131.55 350.45 131.61 350.31C131.52 350.41 131.42 350.5 131.34 350.6C131.11 350.87 131.58 350.47 131.22 350.7C131.1 350.78 130.98 350.85 130.86 350.93C131.29 350.63 130.92 350.88 130.7 351C130.16 351.28 131.06 350.88 130.59 351.05C130.39 351.12 130.19 351.19 130 351.26C129.69 351.38 130.52 351.12 130.19 351.2C130.09 351.23 129.98 351.26 129.88 351.29C129.65 351.36 129.42 351.41 129.18 351.47C129.09 351.49 128.66 351.59 129.06 351.5C129.46 351.41 129.01 351.5 128.93 351.53C128.68 351.58 128.43 351.63 128.19 351.67C127.64 351.77 127.08 351.84 126.52 351.92C126.47 351.92 126.91 351.88 126.47 351.92C126.34 351.93 126.22 351.95 126.09 351.96C125.77 351.99 125.44 352.02 125.12 352.05C124.46 352.11 123.8 352.15 123.13 352.19C121.73 352.27 120.32 352.31 118.92 352.32C118.73 352.32 118.55 352.32 118.36 352.32C118.09 352.32 118.59 352.32 118.32 352.32C118.24 352.32 118.16 352.32 118.08 352.32C117.67 352.32 117.26 352.32 116.85 352.32C116.06 352.32 115.27 352.3 114.48 352.28C111.02 352.2 107.56 352.02 104.1 351.79C96.8101 351.3 89.5301 350.57 82.2701 349.73C76.1901 349.03 70.1101 348.24 64.0401 347.38C62.0501 347.1 60.0601 346.81 58.0701 346.51C57.4501 346.42 56.8301 346.32 56.2101 346.23C56.0101 346.2 55.8101 346.17 55.6101 346.14C55.2801 346.09 55.8001 346.21 55.7201 346.16C55.6801 346.13 55.6001 346.16 55.5601 346.13C55.5401 346.11 55.4701 346.12 55.4401 346.11L55.8101 346.39C52.2901 328.71 53.0101 310.27 55.0501 292.45C56.6701 278.33 59.2501 264.3 62.6201 250.49C63.2601 247.85 63.9201 245.21 64.6701 242.6C64.7401 242.34 64.5701 242.18 64.3201 242.12C59.5601 241.01 55.2701 238.37 51.3901 235.49C47.9501 232.94 44.7501 230.07 41.7401 227.02C40.2701 225.53 38.8201 224 37.5401 222.35C34.9801 219.06 32.8801 215.39 30.8901 211.73C27.0501 204.67 23.7001 197.35 20.5701 189.96C20.2001 189.08 19.8301 188.2 19.4701 187.32C19.1601 186.56 19.3001 186.27 19.5801 185.4C20.7901 181.59 23.5101 178.37 26.2701 175.56C30.9201 170.81 36.3301 166.87 41.9201 163.29C42.0201 163.22 42.1301 163.16 42.2401 163.09C41.0801 163.29 39.9301 163.49 38.7701 163.69C41.3701 166.98 44.1901 170.1 46.9701 173.23C50.1901 176.85 53.3101 180.94 57.5701 183.38C60.3301 184.96 63.4701 185.75 66.6501 185.43C68.7001 185.22 70.8501 184.69 72.6201 183.58C73.3001 183.15 73.0801 182.68 72.3601 182.6C71.4101 182.5 70.2901 182.87 69.5001 183.37L69.4301 183.35Z" fill="#251714"/>
<path d="M80.24 303.26C80.32 301.75 80.66 300.22 81.05 298.77C82 295.26 83.58 291.93 85.7 288.97C87.26 286.79 89.15 284.83 91.26 283.17L89.16 283.25C90.55 284.52 91.93 285.78 93.32 287.05C93.97 287.64 95.39 287.28 95.84 286.57C97.28 284.26 98.71 281.95 100.15 279.64L97.63 280.12C98.86 281.57 99.9 283.2 100.85 284.84C102.94 288.44 104.5 292.41 105.17 296.53C105.62 299.3 105.6 302.1 105.07 304.85C104.85 305.97 107.59 305.55 107.78 304.55C109.41 296.15 106.22 287.51 101.4 280.69C101 280.12 100.59 279.55 100.14 279.02C99.57 278.35 98.03 278.85 97.62 279.5C96.18 281.81 94.75 284.12 93.31 286.43C94.15 286.27 94.99 286.11 95.83 285.95C94.44 284.68 93.06 283.42 91.67 282.15C91.15 281.68 90.08 281.83 89.57 282.23C83.39 287.08 79 294.11 77.74 301.9C77.65 302.44 77.57 302.99 77.54 303.54C77.48 304.73 80.2 304.23 80.25 303.24L80.24 303.26Z" fill="#251714"/>
<path d="M244.48 215.09C243.73 215.33 242.96 215.52 242.19 215.72C241.26 215.95 240.33 216.17 239.39 216.38C238.77 216.52 238.15 216.64 237.53 216.77C237.21 216.83 236.9 216.9 236.58 216.96C236.4 216.99 236.23 217.03 236.05 217.06C235.38 217.19 236.75 216.93 236.05 217.06C227.47 218.61 218.77 219.42 210.06 219.75C209.34 219.78 208.63 219.8 207.91 219.82C207.58 219.82 207.26 219.84 206.93 219.85C206.72 219.85 206.52 219.85 206.31 219.86C206.12 219.86 206.15 219.86 206.38 219.86C206.26 219.86 206.13 219.86 206.01 219.86C204.47 219.89 202.93 219.9 201.39 219.89C199.28 219.89 196.97 219.54 195.29 221.08C194.74 221.58 194.21 222.11 193.67 222.63C190.93 225.24 188.19 227.86 185.45 230.47C181.25 234.48 177.06 238.48 172.86 242.49C168.11 247.02 163.36 251.56 158.62 256.09C154.23 260.28 149.83 264.48 145.44 268.67C142.31 271.66 139.17 274.65 136.04 277.65C135.23 278.43 134.41 279.2 133.6 279.98C133 280.55 132.51 280.97 132.56 281.94C132.69 284.63 132.86 287.31 133 290C133.31 295.55 133.61 301.1 133.92 306.65C134.28 313.2 134.64 319.75 135 326.3C135.31 331.84 135.61 337.37 135.92 342.91C136.02 344.73 136.12 346.54 136.22 348.36C136.26 349.17 136.2 350.09 136.36 350.89C136.47 351.43 136.94 351.71 137.38 352C138.26 352.58 139.27 352.97 140.24 353.34C144.92 355.11 150.12 355.65 155.06 356.02C165.87 356.83 176.81 356.27 187.6 355.34C198.97 354.36 210.27 352.73 221.47 350.55C229.75 348.94 237.98 347.01 246.1 344.71C250.81 343.38 255.49 341.92 260.11 340.28C260.68 340.08 261.25 339.87 261.82 339.65C262.45 339.41 263.32 338.78 263.41 338.04C263.89 334.33 264.05 330.56 264.19 326.82C264.56 316.64 264.23 306.43 263.42 296.28C262.79 288.4 261.83 280.54 260.58 272.73C260.5 272.25 259.88 271.94 259.49 271.83C258.87 271.65 258.06 271.7 257.46 271.88C256.46 272.18 254.98 272.91 255.18 274.18C256.3 281.15 257.18 288.16 257.81 295.19C258.33 300.97 258.68 306.88 258.82 312.53C259.01 320.01 258.93 327.51 258.34 334.96C258.24 336.17 258.14 337.39 257.99 338.59C258.52 338.05 259.05 337.52 259.58 336.98C259.38 337.06 259.18 337.13 258.99 337.2C258.75 337.29 258.52 337.37 258.28 337.46C258.13 337.51 257.98 337.57 257.82 337.62C259.05 337.18 258.21 337.48 257.92 337.58C255.71 338.35 253.48 339.07 251.24 339.77C243.24 342.24 235.12 344.32 226.94 346.08C224.27 346.66 221.58 347.2 218.9 347.71C218.73 347.74 218.55 347.77 218.38 347.81C217.69 347.94 218.82 347.73 218.38 347.81C218.06 347.87 217.75 347.93 217.43 347.98C216.65 348.12 215.86 348.26 215.08 348.4C213.62 348.65 212.15 348.9 210.68 349.13C204.28 350.15 197.85 350.98 191.4 351.6C187.88 351.94 184.36 352.22 180.84 352.44C179.09 352.55 177.35 352.64 175.6 352.71C174.78 352.74 173.95 352.78 173.13 352.8C172.73 352.81 172.34 352.82 171.94 352.83C171.78 352.83 171.63 352.83 171.47 352.84C171.39 352.84 170.58 352.86 170.89 352.85C171.28 352.85 170.54 352.85 170.55 352.85C170.4 352.85 170.25 352.85 170.1 352.85C169.73 352.85 169.36 352.85 168.99 352.86C168.21 352.86 167.43 352.86 166.65 352.86C165.34 352.86 164.03 352.83 162.71 352.8C160.42 352.73 158.13 352.61 155.85 352.42C154.09 352.27 152.34 352.07 150.59 351.8C150.4 351.77 149.68 351.64 150.53 351.8C150.35 351.77 150.17 351.74 149.99 351.71C149.63 351.65 149.27 351.58 148.91 351.51C148.28 351.39 147.66 351.25 147.04 351.11C146.08 350.88 145.13 350.62 144.2 350.31C143.83 350.18 143.46 350.04 143.1 349.9C142.84 349.8 143.73 350.17 143.36 350C143.3 349.97 143.23 349.95 143.17 349.92C143.03 349.86 142.89 349.79 142.75 349.73C142.38 349.56 142.01 349.37 141.67 349.14C141.57 349.08 141.48 349 141.38 348.94C141.06 348.73 141.77 349.34 141.6 349.12C141.73 349.28 141.77 349.69 141.76 349.23C141.76 348.81 141.71 348.38 141.69 347.96C141.44 343.39 141.19 338.82 140.93 334.24C140.54 327.16 140.15 320.08 139.76 312.99C139.38 306.16 139.01 299.33 138.63 292.51C138.42 288.63 138.2 284.76 137.99 280.88L137.96 280.33L137.47 281.66C139.55 279.68 141.62 277.69 143.7 275.71C148.65 270.98 153.6 266.26 158.56 261.53C164.58 255.78 170.6 250.04 176.62 244.29C181.79 239.35 186.97 234.41 192.14 229.47C194.66 227.07 197.24 224.71 199.7 222.25C199.73 222.22 199.77 222.18 199.81 222.15C198.74 222.52 197.67 222.9 196.6 223.27C206.61 223.4 216.65 222.99 226.59 221.77C232.06 221.09 237.54 220.2 242.89 218.86C243.71 218.66 244.53 218.45 245.33 218.19C246.23 217.9 247.94 217.13 247.61 215.89C247.28 214.65 245.35 214.76 244.49 215.04L244.48 215.09Z" fill="#251714"/>
<path d="M245.29 216.61C248.07 219.38 250.54 222.54 252.8 225.74C253.84 227.22 254.84 228.73 255.78 230.27C256.03 230.68 256.27 231.09 256.51 231.51C256.54 231.57 256.66 231.76 256.51 231.51C256.58 231.63 256.64 231.74 256.71 231.86C256.84 232.09 256.97 232.33 257.1 232.56C257.58 233.43 258.04 234.32 258.48 235.22C260.31 238.95 261.77 242.89 262.57 246.97C262.78 248.02 262.94 249.08 263.05 250.14C263.1 250.61 263.14 251.09 263.17 251.56C263.19 251.82 263.2 252.08 263.21 252.35C263.21 252.47 263.21 252.59 263.22 252.71C263.22 252.76 263.22 253.32 263.22 253.04C263.22 255.16 262.99 257.29 262.51 259.36C262.26 260.43 261.95 261.48 261.57 262.51C261.38 263.01 261.18 263.51 260.97 264C260.92 264.12 260.87 264.24 260.81 264.35C260.96 264.02 260.74 264.49 260.73 264.52C260.58 264.83 260.43 265.13 260.27 265.44C259.09 267.75 257.77 269.98 256.32 272.14C254.9 274.26 253.37 276.3 251.73 278.26C251.33 278.74 250.92 279.22 250.5 279.7C250.41 279.81 250.31 279.91 250.22 280.02C250 280.28 250.54 279.67 250.17 280.08C249.94 280.33 249.71 280.59 249.48 280.84C248.64 281.75 247.77 282.64 246.89 283.51C245.12 285.25 243.27 286.9 241.35 288.47C240.44 289.21 239.51 289.94 238.57 290.64C238.49 290.7 238.4 290.76 238.32 290.83C238.84 290.43 238.41 290.77 238.3 290.84C238.09 290.99 237.88 291.15 237.66 291.3C237.15 291.66 236.64 292.02 236.13 292.36C234.32 293.59 232.45 294.74 230.53 295.81C230.09 296.05 229.65 296.29 229.21 296.52C228.98 296.64 228.75 296.76 228.52 296.88C229.33 296.45 228.45 296.91 228.26 297.01C227.37 297.45 226.47 297.87 225.57 298.26C224.71 298.63 223.83 298.99 222.95 299.32C222.76 299.39 222.56 299.46 222.37 299.53C222.25 299.57 222.14 299.61 222.02 299.65C221.54 299.82 222.75 299.41 222.27 299.57C221.86 299.71 221.44 299.84 221.02 299.97C220.23 300.21 219.43 300.43 218.62 300.62C218.43 300.66 218.23 300.71 218.04 300.75C217.95 300.77 217.87 300.79 217.78 300.8C217.32 300.9 218.56 300.65 218.1 300.74C217.73 300.81 217.36 300.87 216.99 300.93C216.29 301.03 215.59 301.11 214.89 301.15L217.23 301.94C215.51 298.63 213.79 295.32 212.08 292.01C209.37 286.78 206.65 281.55 203.94 276.32C203.32 275.12 202.69 273.92 202.07 272.72L201.54 273.9C204.08 271.6 206.61 269.31 209.15 267.01C211.38 264.99 213.66 263.03 215.84 260.96C218.32 258.61 219.66 255.19 218.57 251.83C218.22 250.73 216.33 250.94 215.5 251.19C214.78 251.4 212.81 252.16 213.17 253.28C213.31 253.73 213.43 254.19 213.49 254.65C213.52 254.84 213.53 255.03 213.54 255.22C213.54 255.25 213.54 255.57 213.54 255.42C213.54 255.31 213.52 255.69 213.52 255.69C213.47 256.44 213.28 257.18 213 257.88C212.98 257.94 212.95 258 212.92 258.06C212.84 258.29 213.06 257.81 212.94 258.01C212.87 258.13 212.81 258.27 212.74 258.39C212.58 258.67 212.41 258.94 212.22 259.2C212.08 259.4 211.92 259.59 211.76 259.78C211.46 260.14 212 259.54 211.83 259.7C211.76 259.77 211.7 259.84 211.63 259.91C211.07 260.47 210.45 260.98 209.86 261.52C206.59 264.48 203.32 267.44 200.05 270.4C199.09 271.27 198.14 272.13 197.18 273C196.96 273.2 196.45 273.8 196.65 274.18C198.37 277.49 200.09 280.8 201.8 284.11C204.51 289.34 207.23 294.57 209.94 299.8C210.56 301 211.19 302.2 211.81 303.4C212.26 304.27 213.29 304.24 214.15 304.19C217.82 303.97 221.43 302.93 224.86 301.67C228.89 300.19 232.76 298.22 236.43 295.98C245.03 290.73 252.72 283.86 258.82 275.84C260.41 273.75 261.89 271.57 263.24 269.31C264.59 267.05 265.86 264.73 266.81 262.28C268.42 258.13 268.89 253.63 268.5 249.21C267.76 240.88 264.02 233.04 259.5 226.12C257.74 223.43 255.82 220.84 253.76 218.37C252.7 217.1 251.62 215.82 250.45 214.66C250.4 214.61 250.34 214.55 250.29 214.5C249.44 213.65 247.68 214 246.71 214.44C246.09 214.72 244.39 215.75 245.27 216.63L245.29 216.61Z" fill="#251714"/>
<path d="M197.19 306.53C196.12 306.53 195.13 306.48 194.29 306.37C192.3 306.13 190.85 305.32 189.97 303.96C189 302.47 189.03 300.76 189.18 299.68C188.58 299.2 187.73 298.45 186.89 297.42C185.51 295.74 185.74 293.49 185.98 292.33C184.27 289.54 185.15 285.75 185.32 285.09C186.57 277.5 200.07 273.9 200.65 273.75L201.37 276.52C197.94 277.42 188.87 280.8 188.13 285.61C188.13 285.67 188.11 285.73 188.09 285.78C187.82 286.75 187.39 289.62 188.63 291.15C188.94 291.53 189.03 292.04 188.88 292.51C188.71 293.04 188.38 294.75 189.09 295.61C190.3 297.08 191.51 297.86 191.53 297.87C192.07 298.22 192.32 298.88 192.13 299.5C191.99 299.98 191.75 301.46 192.37 302.42C192.77 303.03 193.53 303.4 194.63 303.53C199.94 304.17 209.6 302.56 211.03 299.44L213.63 300.63C211.68 304.88 203.12 306.52 197.19 306.52V306.53Z" fill="#251714"/>
<path d="M134.58 82.0297C138.43 82.6297 143.78 85.6697 142.47 86.9397C142.18 87.2197 137.77 84.2297 134.98 83.7397C134.49 83.6497 123.59 84.0297 129.74 82.0797C129.97 82.0097 134.35 81.9897 134.58 82.0297Z" fill="#3A1A3A"/>
<path d="M210.35 91.9499C214.2 91.3999 219.79 92.4599 218.96 94.0799C218.78 94.4399 214.08 93.0599 210.96 93.7099C208.92 94.1699 200.17 97.4999 205.34 93.6499C205.53 93.5099 208.27 92.2499 210.35 91.9499Z" fill="#3A1A3A"/>
<path d="M224.37 222.21C225.7 226.56 227.04 230.91 228.37 235.26C228.56 235.87 228.74 236.48 228.93 237.09C229.34 236.37 229.74 235.66 230.15 234.94C227.15 235.4 224.14 235.87 221.14 236.33L219.84 236.53C218.66 236.71 218.33 238.2 218.8 239.1C220.11 241.59 221.41 244.08 222.72 246.57C223.07 245.71 223.42 244.86 223.76 244C222.96 244.32 222.16 244.63 221.37 244.95C219.2 245.81 217.03 246.67 214.86 247.53C211.65 248.8 208.44 250.07 205.23 251.34C201.31 252.89 197.4 254.44 193.48 255.99C189.19 257.69 184.9 259.39 180.61 261.09C176.28 262.8 171.95 264.52 167.62 266.23C163.6 267.82 159.58 269.41 155.56 271.01C152.15 272.36 148.73 273.71 145.32 275.06C142.87 276.03 140.41 277 137.96 277.98C136.8 278.44 135.63 278.9 134.47 279.36C134.42 279.38 134.37 279.4 134.32 279.42C133.44 279.77 132.83 280.59 133.1 281.57C133.33 282.4 134.37 283.14 135.25 282.79C136.05 282.47 136.85 282.16 137.64 281.84C139.81 280.98 141.98 280.12 144.15 279.26C147.36 277.99 150.57 276.72 153.78 275.45C157.7 273.9 161.61 272.35 165.53 270.8C169.82 269.1 174.11 267.4 178.4 265.7C182.73 263.99 187.06 262.27 191.39 260.56C195.41 258.97 199.43 257.38 203.45 255.78C206.86 254.43 210.28 253.08 213.69 251.73C216.14 250.76 218.6 249.79 221.05 248.81C222.21 248.35 223.38 247.89 224.54 247.43C224.59 247.41 224.64 247.39 224.69 247.37C225.76 246.95 226.3 245.89 225.73 244.8C224.42 242.31 223.12 239.82 221.81 237.33L220.77 239.9C223.77 239.44 226.78 238.97 229.78 238.51L231.08 238.31C232 238.17 232.55 236.98 232.3 236.16C230.97 231.81 229.63 227.46 228.3 223.11C228.11 222.5 227.93 221.89 227.74 221.28C227.46 220.38 226.52 219.8 225.59 220.06C224.66 220.32 224.09 221.3 224.37 222.21Z" fill="#251714"/>
<path d="M149.78 46.1399C149.78 46.1399 156.38 38.0299 157.03 38.1999C157.03 38.1999 155.51 43.2699 154.94 47.4099L149.77 46.1499L149.78 46.1399Z" fill="#4D1506"/>
<path d="M222.77 63.7696C217.27 68.5196 218.19 63.6696 216.15 58.0496C212.9 63.1496 207.72 67.5796 201.45 70.6596C200.68 71.0396 198.83 71.9396 199.23 71.1196C199.43 70.0396 200.12 62.8196 198.96 62.3996C195.75 64.5796 191.97 66.3996 188.69 68.4896C188.857 65.4763 189.023 62.4663 189.19 59.4596C184.637 62.733 180.087 66.0063 175.54 69.2796C172.26 63.2196 176.51 55.3896 171.85 54.6196C171.96 54.2996 171.53 53.8996 171.31 53.9796C167.77 55.2096 167.17 55.1196 164.27 52.7296C161.25 50.2296 156.44 41.6796 157.7 38.3696C176.83 41.7196 192.62 44.4396 211.09 51.6996C220.72 54.2396 226.68 41.8196 225.77 54.5996C225.54 57.7896 224.01 60.8596 222.78 63.7796L222.77 63.7696Z" fill="#C74624"/>
<path d="M171.3 53.9697C170.76 54.6697 170.46 55.4597 170.04 56.1997C167.76 52.5397 163.46 67.1897 155.91 70.7397C156.38 59.7797 152.6 48.4897 157.03 38.1997C157.25 38.2397 157.47 38.3297 157.69 38.3597C156.42 41.6697 161.23 50.2297 164.26 52.7197C167.16 55.1097 167.76 55.1997 171.3 53.9697Z" fill="#93301A"/>
<path d="M228.16 59.0096C226.92 69.7896 221.01 76.7096 210.59 83.1196C212.177 80.0396 213.763 76.9596 215.35 73.8796L213.97 73.7896C213.97 73.7896 212.83 73.3996 213.49 72.9096C214.32 72.2896 215.76 72.1896 216.66 71.4096C218.18 70.1096 222.25 67.1996 222.89 66.0996C223.79 64.5396 222.72 63.8896 222.77 63.7796C224 60.8596 225.53 57.7896 225.76 54.5996C226.67 41.8096 220.72 54.2396 211.08 51.6996C216.16 49.5729 221.24 47.4496 226.32 45.3296C228.68 49.9496 228.67 54.5596 228.15 59.0196L228.16 59.0096Z" fill="#4D1506"/>
<path d="M188.69 68.4899C186.93 69.6099 185.37 70.6999 183.66 71.8099C170.3 80.5299 171.26 84.7699 170.48 68.5199C170.26 64.0399 168.94 62.9199 171.85 54.6099C176.51 55.3799 172.27 63.2099 175.54 69.2699C180.093 65.9965 184.643 62.7232 189.19 59.4499C189.023 62.4632 188.856 65.4732 188.69 68.4799V68.4899Z" fill="#93301A"/>
<path d="M199.23 71.1197C197.58 79.9397 191.19 83.2897 201.93 79.9397C189.48 87.7997 198.09 79.2997 196.8 71.0297C195.96 72.2097 186.61 82.6897 184.46 81.1797C185.207 77.7197 185.953 74.2597 186.7 70.7997L183.65 71.8197C185.36 70.7097 186.92 69.6197 188.68 68.4997C191.96 66.4097 195.74 64.5897 198.95 62.4097C200.11 62.8197 199.43 70.0497 199.22 71.1297L199.23 71.1197Z" fill="#8C4629"/>
<path d="M216.67 71.3999C215.76 72.1799 214.33 72.2799 213.5 72.8999C212.84 73.3899 214.02 73.7499 213.98 73.7799C210.96 75.9099 205.83 78.7199 201.94 79.9299C191.2 83.2799 197.59 79.9299 199.24 71.1099C198.83 71.9299 200.68 71.0199 201.46 70.6499C208.27 73.7899 211.04 73.2099 216.68 71.3999H216.67Z" fill="#93301A"/>
<path d="M171.84 54.6099C168.93 62.9199 170.25 64.0399 170.47 68.5199C161.34 78.0899 161.97 75.7299 165.97 64.0899C166.87 61.4599 168.66 58.6899 170.04 56.1999C170.45 55.4599 170.75 54.6699 171.3 53.9699C171.52 53.8899 172.3 54.4699 171.84 54.6099Z" fill="#8C4629"/>
<path d="M222.77 63.7696C222.73 63.8796 223.79 64.5295 222.89 66.0895C222.25 67.1895 218.18 70.0996 216.66 71.3996C211.02 73.2196 208.25 73.7996 201.44 70.6496C207.71 67.5696 212.89 63.1396 216.14 58.0396C218.18 63.6596 217.26 68.5095 222.76 63.7595L222.77 63.7696Z" fill="#93301A"/>
<path d="M225.87 45.1398C220.79 47.2598 215.71 49.3898 210.63 51.5098C211.16 51.4398 211.68 51.3798 212.21 51.3098C205.34 48.6198 198.31 46.3498 191.16 44.4998C184.3 42.7298 177.36 41.3198 170.39 40.0398C166.32 39.2898 162.2 38.6998 158.15 37.8198C157.69 37.7198 157.18 37.8198 156.75 37.9598C156.43 38.0598 155.86 38.2398 155.72 38.5898C152.3 46.6498 153.79 55.4698 154.4 63.8998C154.58 66.3498 154.68 68.8098 154.58 71.2598C154.56 71.8498 156.53 71.1998 156.72 71.1098C160.25 69.4298 162.71 66.1598 164.83 62.9898C165.81 61.5198 166.72 60.0198 167.68 58.5398C168.03 57.9998 168.39 57.4698 168.78 56.9798C168.94 56.7798 169.11 56.5798 169.29 56.3998C169.36 56.3198 169.44 56.2498 169.52 56.1798C169.68 56.0198 169.4 56.2098 169.64 56.0898C169.93 55.9398 169.25 56.2498 169.41 56.1898C169.06 56.3198 168.7 56.3798 168.42 56.3698C168.57 56.3698 168.21 56.3698 168.32 56.3598C168.4 56.3598 168.39 56.4598 168.28 56.3298C168.33 56.3798 168.43 56.4198 168.49 56.4698C168.81 56.7398 168.55 56.9198 168.33 57.2898C167.95 57.9498 167.57 58.6098 167.19 59.2798C166.43 60.6098 165.68 61.9598 165.09 63.3698C164.56 64.6198 164.16 65.9198 163.73 67.1998C163.13 68.9798 162.5 70.7698 162.08 72.6098C161.94 73.2098 161.53 74.5298 162.16 75.0098C162.79 75.4898 163.89 75.1098 164.51 74.8798C165.22 74.6098 165.84 74.1898 166.42 73.7198C168.34 72.1898 170.03 70.3598 171.72 68.5898L169.14 69.0298C169.26 71.6298 169.32 74.2498 169.56 76.8498C169.65 77.7798 169.67 79.3698 170.52 79.9998C171.02 80.3698 171.75 80.2898 172.31 80.1898C173.18 80.0398 173.97 79.6598 174.72 79.1998C176.25 78.2698 177.63 77.0798 179.06 75.9998C180.31 75.0598 181.58 74.1398 182.88 73.2498C183.25 72.9998 183.61 72.7498 183.98 72.5098C184.13 72.4098 184.39 72.1498 184.56 72.1298C184.51 72.1298 184.06 72.3198 184.54 72.1798C184.65 72.1498 184.76 72.1098 184.87 72.0698C185.65 71.8098 186.42 71.5498 187.2 71.2898L185.39 71.1698C184.64 74.6298 183.9 78.0898 183.15 81.5498C183.11 81.6498 183.13 81.7298 183.22 81.7898C184.25 82.4698 185.91 81.8398 186.9 81.3798C188.08 80.8298 189.13 80.0098 190.13 79.1798C192.37 77.3298 194.41 75.2298 196.35 73.0798C196.97 72.3898 197.61 71.6998 198.16 70.9498C197.26 71.1498 196.37 71.3398 195.47 71.5398C195.94 74.6698 195.03 77.6698 194.19 80.6498C193.99 81.3598 193.56 82.4298 193.81 83.1798C194.19 84.3198 196.18 83.6898 196.93 83.4398C199.09 82.7198 201.08 81.3698 202.99 80.1698L202.07 80.5598C206.66 79.1098 211.09 76.7798 215.03 74.0198L213.12 74.5298C213.58 74.5598 214.04 74.5898 214.5 74.6198L214.03 74.2698C212.44 77.3498 210.86 80.4298 209.27 83.5098C209.08 83.8798 209.9 83.8698 210.03 83.8598C210.59 83.8298 211.17 83.6498 211.65 83.3498C216.51 80.3598 221.16 76.8198 224.53 72.1598C227.77 67.6798 229.29 62.4698 229.7 57.0098C230.01 52.9098 229.56 48.8398 227.69 45.1298C227.34 44.4298 224.74 45.3598 224.99 45.8498C226.62 49.0798 227.21 52.6198 227.08 56.2198C226.98 59.1198 226.58 62.0298 225.73 64.8098C224.23 69.7398 221.29 73.9498 217.5 77.3998C215.06 79.6198 212.35 81.4998 209.55 83.2198L211.93 83.0598C213.52 79.9798 215.1 76.8998 216.69 73.8198C216.83 73.5498 216.37 73.4798 216.22 73.4698C215.24 73.4098 214.27 73.2798 213.34 73.6798C212.64 73.9798 212 74.5298 211.36 74.9398C210 75.8098 208.59 76.5998 207.15 77.3398C205.71 78.0798 204.24 78.7698 202.72 79.3298C201.8 79.6698 201.12 79.8998 200.24 80.4498C199.57 80.8698 198.9 81.2798 198.21 81.6698C197.69 81.9598 197.17 82.2498 196.63 82.4998C196.56 82.5298 196.22 82.6798 196.52 82.5498C196.44 82.5798 196.35 82.6198 196.27 82.6498C196.19 82.6798 196.11 82.6998 196.04 82.7298C196.38 82.5898 196.28 82.6598 196.18 82.6798C195.99 82.7298 196.33 82.6498 196.35 82.6498C196.02 82.7098 196.72 82.6498 196.53 82.6498C196.52 82.6498 196.73 82.6198 196.59 82.6498C196.54 82.6598 196.69 82.7198 196.61 82.6498C196.49 82.5498 196.57 82.6698 196.53 82.5698C196.49 82.4898 196.47 82.3998 196.46 82.3098C196.38 81.7898 196.56 81.2398 196.71 80.7098C196.93 79.8698 197.2 79.0298 197.43 78.1898C198.08 75.8098 198.53 73.3098 198.16 70.8298C198.1 70.4298 197.05 70.6498 196.87 70.6898C196.37 70.7998 195.79 70.9798 195.48 71.4198C195.65 71.1798 195.45 71.4598 195.4 71.5198C195.3 71.6398 195.2 71.7598 195.1 71.8798C194.83 72.1998 194.56 72.5098 194.29 72.8098C193.5 73.6898 192.7 74.5598 191.87 75.4098C190.11 77.2198 188.28 79.0598 186.21 80.4498C186.08 80.5398 185.95 80.6198 185.82 80.6998C185.77 80.7298 185.72 80.7598 185.67 80.7898C185.48 80.8998 185.79 80.7298 185.67 80.7898C185.56 80.8398 185.46 80.8998 185.35 80.9498C185.03 81.1098 185.58 80.8698 185.26 80.9898C185.17 81.0198 185.01 81.0598 185.43 80.9398C185.18 80.9798 185.36 80.9598 185.43 80.9398C185.44 80.9398 185.84 80.8898 185.62 80.8998C185.93 80.8798 185.85 80.8998 185.76 80.8998C186.17 80.8998 185.81 80.9398 185.81 80.8998C185.81 80.8798 185.79 80.8998 185.74 80.8598L185.81 81.0998C186.56 77.6398 187.3 74.1798 188.05 70.7198C188.2 70.0298 186.48 70.5198 186.24 70.5998C185.6 70.8098 184.96 71.0298 184.32 71.2398C183.44 71.5298 182.67 71.8598 181.9 72.3698C180.72 73.1598 179.56 73.9698 178.41 74.8098C176.79 75.9898 175.22 77.2498 173.59 78.4198C173.32 78.6098 173.05 78.7998 172.77 78.9798C172.68 79.0398 172.26 79.2598 172.62 79.0798C172.51 79.1298 172.4 79.1898 172.3 79.2498C172.07 79.3798 172.63 79.1298 172.3 79.2498C172.56 79.1598 172.65 79.1298 172.97 79.1098C172.79 79.1198 173.1 79.1098 173.13 79.1098C172.93 79.0998 173.09 79.1098 173.13 79.1098C173.34 79.1298 173.16 79.0998 173.13 79.0998C173.08 79.0998 173.26 79.1898 173.16 79.1098C173.11 79.0698 173.05 79.0298 173 78.9898C172.97 78.9698 172.95 78.9298 172.92 78.9098C172.86 78.8498 172.97 78.9898 172.91 78.8898C172.8 78.7198 172.72 78.5298 172.66 78.3298C172.46 77.7298 172.39 77.0998 172.32 76.4798C172.02 73.7698 171.99 71.0298 171.86 68.3098C171.84 67.9698 170.89 68.1098 170.75 68.1298C170.26 68.2098 169.64 68.3798 169.28 68.7498C167.72 70.3798 166.17 72.0398 164.45 73.4998C164.18 73.7298 164.15 73.7598 163.86 73.9698C163.76 74.0398 163.66 74.1098 163.56 74.1798C163.24 74.3998 163.7 74.1298 163.42 74.2598C163.18 74.3798 163.92 74.0898 163.76 74.1398C164.1 74.0498 164.42 74.0398 164.69 74.0698C164.6 74.0698 164.74 74.1498 164.71 74.0698C164.65 73.9198 164.72 74.1398 164.67 74.0198C164.32 73.1998 164.81 71.9598 165.03 71.1598C165.59 69.1098 166.3 67.0998 166.99 65.0998C167.51 63.5698 168.11 62.1098 168.86 60.6898C169.67 59.1498 170.58 57.6598 171.43 56.1498L171.45 56.0198C170.69 54.8298 169.12 55.1498 168.02 55.7198C166.92 56.2898 166.22 57.2998 165.55 58.2698C163.56 61.1598 161.89 64.2598 159.62 66.9498C158.95 67.7398 158.24 68.4998 157.46 69.1798C156.73 69.8098 155.93 70.3498 155.18 70.7098C155.89 70.6598 156.61 70.6098 157.32 70.5598C157.66 62.0598 155.43 53.5498 156.56 45.0698C156.88 42.6898 157.48 40.3598 158.42 38.1498L155.98 38.9198C158.52 39.4798 161.11 39.8698 163.67 40.3198C166.23 40.7698 168.74 41.2298 171.27 41.7098C176.22 42.6498 181.15 43.6698 186.04 44.8598C190.93 46.0498 195.87 47.4398 200.69 49.0298C203.23 49.8698 205.75 50.7598 208.26 51.7198C208.86 51.9498 209.52 52.3098 210.15 52.4298C211 52.5898 211.87 52.1098 212.63 51.7898C213.65 51.3598 214.67 50.9398 215.69 50.5098C219.41 48.9498 223.13 47.3998 226.85 45.8398C227.1 45.7398 227.97 45.4098 227.64 45.0198C227.35 44.6698 226.2 45.0198 225.89 45.1398H225.87Z" fill="#251714"/>
</g>
</g>
<defs>
<clipPath id="clip0_154_6430">
<rect width="330" height="286" fill="white"/>
</clipPath>
</defs>
</svg>
