<svg width="24" height="25" viewBox="0 0 24 25" fill="none" xmlns="http://www.w3.org/2000/svg">
<g clip-path="url(#clip0_152_5534)">
<path d="M0 12.4939C0 5.86858 5.36858 0.5 11.9939 0.5C18.6192 0.5 23.9878 5.86858 23.9878 12.4939C23.9878 16.0201 22.4748 19.1802 20.0468 21.3765L23.5485 24.4878H12.1159C12.1159 24.4878 12.0305 24.4878 11.9939 24.4878C11.9573 24.4878 11.9085 24.4878 11.8719 24.4878H11.6523H11.6645C5.19776 24.3048 0 19.0094 0 12.4939Z" fill="#0B58AA"/>
<path d="M5.85675 13.9337C6.6519 13.9337 7.2965 13.2891 7.2965 12.494C7.2965 11.6988 6.6519 11.0542 5.85675 11.0542C5.06159 11.0542 4.41699 11.6988 4.41699 12.494C4.41699 13.2891 5.06159 13.9337 5.85675 13.9337Z" fill="white"/>
<path d="M11.994 13.9337C12.7891 13.9337 13.4337 13.2891 13.4337 12.494C13.4337 11.6988 12.7891 11.0542 11.994 11.0542C11.1988 11.0542 10.5542 11.6988 10.5542 12.494C10.5542 13.2891 11.1988 13.9337 11.994 13.9337Z" fill="white"/>
<path d="M18.1312 13.9337C18.9263 13.9337 19.5709 13.2891 19.5709 12.494C19.5709 11.6988 18.9263 11.0542 18.1312 11.0542C17.336 11.0542 16.6914 11.6988 16.6914 12.494C16.6914 13.2891 17.336 13.9337 18.1312 13.9337Z" fill="white"/>
</g>
<defs>
<clipPath id="clip0_152_5534">
<rect width="24" height="24" fill="white" transform="translate(0 0.5)"/>
</clipPath>
</defs>
</svg>
