<svg width="262" height="139" viewBox="0 0 262 139" fill="none" xmlns="http://www.w3.org/2000/svg">
<path d="M246.689 59.9199C232.201 78.0199 232.261 62.2799 222.576 45.8399C215.352 63.7299 201.695 80.6499 183.826 93.9599C181.625 95.5999 176.342 99.5099 177.142 96.7099C177.142 93.2099 175.071 70.1599 171.189 69.5399C162.395 78.2399 151.579 86.1499 142.524 94.6099C141.297 85.0699 140.066 75.5332 138.832 65.9999C126.466 78.9199 114.1 91.8399 101.733 104.76C87.9159 87.6699 96.6604 60.6599 81.5926 60.9499C81.7527 59.8699 80.1718 58.8799 79.5215 59.2499C69.1461 65.1799 67.2051 65.2499 56.7096 59.4399C45.7639 53.3799 25.6835 29.3799 27.7245 18.2499C89.6968 17.5899 140.793 16.9099 202.966 28.8899C234.672 31.2499 246.108 -11.1901 250.701 29.4199C251.841 39.5399 248.83 50.0599 246.679 59.9299L246.689 59.9199Z" fill="#BA4F31"/>
<path d="M79.5215 59.2299C78.2208 61.7399 77.7406 64.3899 76.8802 66.9599C67.5854 56.8199 62.6428 105.26 41.0415 120.78C36.119 86.1399 17.6893 52.9599 25.5634 18.1099C26.2838 18.1099 27.0142 18.2499 27.7246 18.2399C25.6835 29.3699 45.764 53.3699 56.7097 59.4299C67.2051 65.2399 69.1561 65.1699 79.5215 59.2399V59.2299Z" fill="#8A3723"/>
<path d="M260.816 41.85C263.227 76.37 248.73 101.52 219.775 127.69C222.95 117.103 226.125 106.517 229.3 95.93C227.839 96.1033 226.381 96.2767 224.927 96.45C225.037 96.34 221.115 95.89 222.906 93.96C225.157 91.54 229.6 90.38 231.991 87.41C235.993 82.44 247.069 70.95 248.42 67.11C250.331 61.7 246.609 60.26 246.689 59.91C248.84 50.04 251.861 39.52 250.711 29.4C246.118 -11.22 234.682 31.22 202.976 28.87C217.677 19.25 232.375 9.62667 247.069 0C257.184 13.09 259.815 27.55 260.816 41.84V41.85Z" fill="#47190B"/>
<path d="M142.524 94.6C137.672 99.14 133.39 103.46 128.687 107.96C91.8781 143.09 97.3609 155.82 85.4147 105.33C82.123 91.41 77.3305 88.67 81.6027 60.9301C96.6706 60.6401 87.926 87.65 101.743 104.74C114.11 91.82 126.476 78.9 138.843 65.98C140.07 75.52 141.3 85.0567 142.534 94.59L142.524 94.6Z" fill="#8A3723"/>
<path d="M177.132 96.7C177.112 125.31 159.003 139.54 190.749 122.76C156.301 154.67 178.343 123.01 169.468 97.81C167.517 102 144.315 140.31 136.701 136.83C137.028 125.543 137.352 114.26 137.672 102.98C134.677 104.64 131.682 106.297 128.687 107.95C133.389 103.46 137.672 99.13 142.524 94.59C151.579 86.13 162.395 78.22 171.189 69.52C175.071 70.14 177.142 93.19 177.142 96.69L177.132 96.7Z" fill="#864A30"/>
<path d="M231.981 87.4102C229.59 90.3802 225.147 91.5402 222.896 93.9602C221.095 95.8902 225.027 96.3301 224.917 96.4501C216.683 104.89 202.225 116.7 190.749 122.77C159.003 139.54 177.122 125.32 177.132 96.7102C176.332 99.5102 181.615 95.6002 183.816 93.9602C207.018 99.8502 215.352 96.4002 231.981 87.4202V87.4102Z" fill="#8A3723"/>
<path d="M81.5926 60.9301C77.3204 88.6701 82.1229 91.4101 85.4046 105.33C62.3426 140.65 62.9429 132.89 68.7159 94.0601C70.0166 85.3001 73.9887 75.5501 76.8802 66.9501C77.7407 64.3801 78.2209 61.7301 79.5216 59.2201C80.1719 58.8501 82.9634 60.1901 81.5926 60.9201V60.9301Z" fill="#864A30"/>
<path d="M246.689 59.9198C246.609 60.2798 250.331 61.7098 248.42 67.1198C247.069 70.9598 235.983 82.4398 231.991 87.4198C215.352 96.3998 207.028 99.8499 183.826 93.9599C201.695 80.6499 215.352 63.7298 222.576 45.8398C232.271 62.2798 232.201 78.0198 246.689 59.9198Z" fill="#8A3723"/>
<path d="M25.5633 18.0996C25.5633 18.0996 22.1516 34.6096 24.3527 47.8396L0 47.8896C0 47.8896 13.1368 20.6696 25.5633 18.0996Z" fill="#333333"/>
</svg>
