<svg width="65" height="58" viewBox="0 0 65 58" fill="none" xmlns="http://www.w3.org/2000/svg">
<path d="M46.7799 29.6733L42.5393 29.6512L44.6652 26.0638L46.8021 22.4653L48.9058 26.0749L51.0206 29.6844L46.7799 29.6733Z" fill="#00815F"/>
<path d="M42.9821 32.1867C42.9821 41.9413 35.0434 49.8801 25.2888 49.8801C15.5342 49.8801 7.5955 41.9413 7.5955 32.1867C7.5955 22.4322 15.5342 14.4934 25.2888 14.4934V6.89795C11.349 6.89795 0 18.2358 0 32.1867C0 46.1377 11.349 57.4755 25.2888 57.4755C39.2286 57.4755 50.5776 46.1266 50.5776 32.1867H42.9821Z" fill="#00815F"/>
<path d="M49.426 19.7084C51.6847 18.1694 55.2167 15.5896 57.4754 14.0616V55.1947H64.9049V0L46.7687 12.3565L28.6436 0V21.0703H36.073V14.0616C38.3428 15.6117 41.443 18.1583 43.7017 19.7084H49.4149H49.426Z" fill="#FFB100"/>
</svg>
