<svg width="32" height="32" viewBox="0 0 32 32" fill="none" xmlns="http://www.w3.org/2000/svg">
<path id="Vector" d="M1.33344 13.3318C0.979793 13.3318 0.640626 13.1913 0.390557 12.9412C0.140488 12.6912 0 12.352 0 11.9983V1.33344C0 0.979793 0.140488 0.640626 0.390557 0.390557C0.640626 0.140488 0.979793 0 1.33344 0H12.001C12.3547 0 12.6938 0.140488 12.9439 0.390557C13.194 0.640626 13.3344 0.979793 13.3344 1.33344V11.9983C13.3344 12.352 13.194 12.6912 12.9439 12.9412C12.6938 13.1913 12.3547 13.3318 12.001 13.3318H1.33344ZM20.0017 13.3318C19.648 13.3318 19.3088 13.1913 19.0588 12.9412C18.8087 12.6912 18.6682 12.352 18.6682 11.9983V1.33344C18.6682 0.979793 18.8087 0.640626 19.0588 0.390557C19.3088 0.140488 19.648 0 20.0017 0H30.6666C31.0202 0 31.3594 0.140488 31.6094 0.390557C31.8595 0.640626 32 0.979793 32 1.33344V11.9983C32 12.352 31.8595 12.6912 31.6094 12.9412C31.3594 13.1913 31.0202 13.3318 30.6666 13.3318H20.0017ZM1.33344 32C0.979793 32 0.640626 31.8595 0.390557 31.6094C0.140488 31.3594 0 31.0202 0 30.6666V19.999C0 19.6453 0.140488 19.3062 0.390557 19.0561C0.640626 18.806 0.979793 18.6656 1.33344 18.6656H12.001C12.3547 18.6656 12.6938 18.806 12.9439 19.0561C13.194 19.3062 13.3344 19.6453 13.3344 19.999V30.6666C13.3344 31.0202 13.194 31.3594 12.9439 31.6094C12.6938 31.8595 12.3547 32 12.001 32H1.33344ZM20.0017 32C19.648 32 19.3088 31.8595 19.0588 31.6094C18.8087 31.3594 18.6682 31.0202 18.6682 30.6666V19.999C18.6682 19.6453 18.8087 19.3062 19.0588 19.0561C19.3088 18.806 19.648 18.6656 20.0017 18.6656H30.6666C31.0202 18.6656 31.3594 18.806 31.6094 19.0561C31.8595 19.3062 32 19.6453 32 19.999V30.6666C32 31.0202 31.8595 31.3594 31.6094 31.6094C31.3594 31.8595 31.0202 32 30.6666 32H20.0017Z" fill="#333333"/>
</svg>
