<svg width="24" height="25" viewBox="0 0 24 25" fill="none" xmlns="http://www.w3.org/2000/svg">
<path d="M17.5536 16.7882C20.9077 12.6268 21.0568 7.18186 17.8865 4.62663C14.7163 2.0714 9.42725 3.37345 6.07314 7.53484C2.71904 11.6962 2.56999 17.1411 5.74023 19.6964C8.91047 22.2516 14.1995 20.9495 17.5536 16.7882Z" fill="#FCEA2B"/>
<path d="M17.8087 4.62659C16.5501 3.64607 14.9634 3.18557 13.3754 3.33992C14.6004 3.41478 15.7729 3.8639 16.7344 4.62659C19.9044 7.18192 19.7557 12.6266 16.4017 16.7879C14.3551 19.3273 11.5884 20.7993 9.02173 20.9826C11.8651 21.1956 15.1394 19.6863 17.4757 16.7879C20.8297 12.6266 20.9791 7.18159 17.8087 4.62659Z" fill="white"/>
<path d="M18.8789 4.97717C18.7119 4.8426 18.5386 4.71601 18.3596 4.59784C18.3477 4.59206 18.3354 4.58705 18.3229 4.58284C18.2655 4.55444 18.2013 4.54267 18.1376 4.54884C18.0721 4.55551 18.0106 4.58296 17.9619 4.62717C17.951 4.63419 17.9405 4.64187 17.9306 4.65017C17.9242 4.65684 17.9222 4.66584 17.9166 4.67284C17.9109 4.67984 17.9029 4.68417 17.8976 4.69184C17.8919 4.70374 17.887 4.71599 17.8829 4.72851C17.8541 4.78648 17.8423 4.85144 17.8489 4.91584C17.8517 4.93659 17.8565 4.95701 17.8632 4.97684C17.8753 5.01861 17.897 5.05697 17.9266 5.08884C17.9337 5.1001 17.9414 5.1109 17.9499 5.12117C20.7092 7.66651 20.4216 12.6998 17.2949 16.5795C14.0609 20.5912 8.97157 21.8728 5.95023 19.4372C5.9307 19.4241 5.9098 19.4133 5.8879 19.4048L5.86957 19.3952C5.83776 19.3817 5.804 19.3733 5.76957 19.3705C5.76057 19.3698 5.7519 19.3685 5.7429 19.3682C5.67173 19.3664 5.60217 19.3895 5.54623 19.4335C5.53496 19.4393 5.52405 19.4457 5.51357 19.4528C5.5069 19.4585 5.50457 19.4665 5.4989 19.4728C5.49357 19.4785 5.48623 19.4812 5.48123 19.4872C5.47546 19.497 5.47023 19.5071 5.46557 19.5175C5.44928 19.5408 5.43616 19.5661 5.42657 19.5928C5.42332 19.6035 5.42065 19.6143 5.41857 19.6252C5.4106 19.6575 5.40768 19.6909 5.4099 19.7242C5.41057 19.7308 5.4119 19.7368 5.4129 19.7435C5.41758 19.7797 5.4284 19.8149 5.4449 19.8475C5.44757 19.8528 5.4509 19.8575 5.4539 19.8625C5.46369 19.8841 5.47588 19.9046 5.49023 19.9235C5.72503 20.1828 5.97981 20.4234 6.25223 20.6428C7.52597 21.6503 9.10874 22.1867 10.7326 22.1612C13.5959 22.1612 16.6959 20.6678 18.9086 17.9228C22.3899 13.6038 22.3766 7.79617 18.8789 4.97717Z" fill="#F1B31C"/>
<path d="M7.31299 15.5233C7.33732 15.4459 7.51632 14.7853 7.53999 14.7079C9.51266 14.7433 9.60999 14.6776 9.90299 13.7053C10.4563 11.8693 10.6177 11.5406 11.1713 9.70459C11.3657 9.06059 11.3313 8.91992 10.408 8.74392L9.84565 8.64025C9.86665 8.57225 9.99265 7.94859 10.0137 7.88092C11.375 7.88156 12.735 7.79371 14.085 7.61792L12.252 13.9513C11.966 14.9399 12.0013 15.0193 13.8953 15.3853C13.8733 15.4633 13.6953 16.1246 13.6737 16.2029L7.31299 15.5233Z" fill="#F1B31C"/>
<path d="M18.1748 4.87549C18.3441 4.98682 18.5089 5.10704 18.6692 5.23615C22.0292 7.94415 22.0198 13.5305 18.6488 17.7128C15.2778 21.8952 9.82082 23.0912 6.46082 20.3832C6.20201 20.1746 5.95993 19.9462 5.73682 19.6998" stroke="black" stroke-width="0.666667" stroke-miterlimit="10"/>
<path d="M17.5536 16.7882C20.9077 12.6268 21.0568 7.18186 17.8865 4.62663C14.7163 2.0714 9.42725 3.37345 6.07314 7.53484C2.71904 11.6962 2.56999 17.1411 5.74023 19.6964C8.91047 22.2516 14.1995 20.9495 17.5536 16.7882Z" stroke="black" stroke-width="0.666667" stroke-miterlimit="10"/>
<path d="M17.5533 16.7882L18.6486 17.7132M16.4009 18.0365L17.3663 19.0742M15.1813 19.0512L15.9739 20.1585M13.8433 19.9438L14.4673 21.0585M18.4409 15.5415L19.6039 16.3462" stroke="black" stroke-width="0.666667" stroke-miterlimit="10"/>
<path d="M7.31299 15.5231C7.33732 15.4458 7.51632 14.7851 7.53999 14.7078C9.51266 14.7431 9.60999 14.6775 9.90299 13.7051C10.4563 11.8691 10.6177 11.5405 11.1713 9.70446C11.3657 9.06046 11.3313 8.9198 10.408 8.7438L9.84565 8.64013C9.86665 8.57213 9.99265 7.94846 10.0137 7.8808C11.375 7.88144 12.735 7.79358 14.085 7.6178L12.252 13.9511C11.966 14.9398 12.0013 15.0191 13.8953 15.3851C13.8733 15.4631 13.6953 16.1245 13.6737 16.2028L7.31299 15.5231Z" stroke="black" stroke-width="0.666667" stroke-linecap="round" stroke-linejoin="round"/>
</svg>
