<svg width="281" height="60" viewBox="0 0 281 60" fill="none" xmlns="http://www.w3.org/2000/svg">
<g clip-path="url(#clip0_154_6228)">
<path d="M46.7799 32.1977L42.5393 32.1756L44.6652 28.5882L46.8021 24.9897L48.9058 28.5993L51.0206 32.2088L46.7799 32.1977Z" fill="#00815F"/>
<path d="M42.9821 34.7112C42.9821 44.4657 35.0434 52.4045 25.2888 52.4045C15.5342 52.4045 7.5955 44.4657 7.5955 34.7112C7.5955 24.9566 15.5342 17.0179 25.2888 17.0179V9.42236C11.349 9.42236 0 20.7602 0 34.7112C0 48.6621 11.349 60 25.2888 60C39.2286 60 50.5776 48.651 50.5776 34.7112H42.9821Z" fill="#00815F"/>
<path d="M49.426 22.2328C51.6847 20.6938 55.2167 18.114 57.4754 16.586V57.7191H64.9049V2.52441L46.7687 14.8809L28.6436 2.52441V23.5947H36.073V16.586C38.3428 18.1362 41.443 20.6827 43.7017 22.2328H49.4149H49.426Z" fill="#FFB100"/>
<path d="M192.345 45.695L201.812 15.2022H205.267C205.853 15.2022 206.396 14.9144 206.706 14.4383L208.976 6.74311L187.673 6.92027L188.758 3.62077C188.824 3.42147 188.68 3.22217 188.47 3.22217H179.048C178.915 3.22217 178.804 3.31075 178.76 3.43254L177.586 7.00884L161.786 7.14171C161.388 7.14171 161.055 7.45173 161.055 7.82818L159.251 14.5158C159.251 14.8922 159.572 15.2022 159.981 15.2022H191.493L182.026 45.695H157.557C157.202 45.695 156.926 45.9828 156.926 46.3371V53.5008C156.926 53.8551 157.213 54.143 157.557 54.143H207.514C207.924 54.143 208.289 53.8773 208.422 53.4897L211.057 45.6839H192.368L192.345 45.695Z" fill="#333333"/>
<path d="M173.622 39.7159H183.045L175.759 22.1776C175.626 21.8676 175.316 21.6572 174.984 21.6572H165.562L172.847 39.1955C172.98 39.5055 173.29 39.7159 173.622 39.7159Z" fill="#333333"/>
<path d="M134.217 28.6107V31.578C134.217 31.8438 133.929 32.0652 133.563 32.0652H126.156C125.791 32.0652 125.503 31.8438 125.503 31.578V28.6107C125.503 28.345 125.791 28.1235 126.156 28.1235H133.563C133.929 28.1235 134.217 28.345 134.217 28.6107ZM118.361 28.6107V31.578C118.361 31.8438 118.073 32.0652 117.708 32.0652H110.301C109.935 32.0652 109.648 31.8438 109.648 31.578V28.6107C109.648 28.345 109.935 28.1235 110.301 28.1235H117.708C118.073 28.1235 118.361 28.345 118.361 28.6107ZM134.217 40.2807V43.2481C134.217 43.5138 133.929 43.7353 133.563 43.7353H126.156C125.791 43.7353 125.503 43.5138 125.503 43.2481V40.2807C125.503 40.015 125.791 39.7936 126.156 39.7936H133.563C133.929 39.7936 134.217 40.015 134.217 40.2807ZM118.361 40.2807V43.2481C118.361 43.5138 118.073 43.7353 117.708 43.7353H110.301C109.935 43.7353 109.648 43.5138 109.648 43.2481V40.2807C109.648 40.015 109.935 39.7936 110.301 39.7936H117.708C118.073 39.7936 118.361 40.015 118.361 40.2807ZM141.58 20.2401C141.613 19.8415 141.303 19.4983 140.926 19.5315C139.398 19.6865 137.904 19.7198 135.789 19.7198H108.463C106.337 19.7198 105.584 19.7198 104.045 19.7198C102.949 19.7198 102.827 19.9855 102.827 21.5134C102.827 23.2739 102.849 23.6393 102.849 25.8316V47.4112C102.849 50.0685 102.894 51.1647 102.883 54.1541C102.883 54.9181 103.934 54.8185 104.289 54.8185H109.869C110.201 54.8185 110.467 54.5306 110.467 54.1652V53.1355C110.467 52.7812 110.733 52.4823 111.065 52.4823H133.176C133.508 52.4823 133.774 52.7701 133.774 53.1355V54.1652C133.774 54.5195 134.04 54.8185 134.372 54.8185H140.816C141.17 54.8185 141.458 54.6081 141.458 53.8331C141.458 51.829 141.391 50.1903 141.391 47.4666V25.8316C141.391 23.5064 141.425 22.0228 141.58 20.2291V20.2401Z" fill="#333333"/>
<path d="M117.066 7.31869C116.745 7.31869 116.479 7.05296 116.479 6.7208V6.06754C116.479 5.11533 116.534 4.41779 117.453 3.65381C117.453 3.65381 111.851 3.65381 110.245 3.65381H109.504C109.326 3.65381 109.193 3.79775 109.193 3.9749V7.31869H106.902C104.72 7.31869 103.137 7.31869 101.631 7.31869C101.1 7.31869 100.989 7.92766 100.989 8.29304V13.8291C100.989 14.1834 101.288 14.4602 101.631 14.427C103.104 14.272 104.687 14.1945 106.902 14.1945H108.662C108.839 14.1945 108.994 14.2831 109.105 14.4049V16.9625C109.105 16.9625 109.105 16.9847 109.105 17.0068H116.579C116.479 16.2982 116.479 15.955 116.479 14.7924C116.479 14.4602 116.745 14.1834 117.066 14.1834H121.362V7.29655H117.066V7.31869Z" fill="#333333"/>
<path d="M144.303 7.29655C142.521 7.2744 140.96 7.31869 138.568 7.31869H135.733C135.412 7.31869 135.147 7.05296 135.147 6.7208V6.06754C135.147 5.15962 135.18 4.34028 136.01 3.65381H130.264H128.204C128.027 3.65381 127.894 3.79775 127.894 3.9749V5.59144C127.894 5.59144 127.894 5.63572 127.894 5.66894V6.85366C127.839 7.11939 127.607 7.31869 127.319 7.31869H123.311V14.2056H127.319C127.518 14.2056 127.695 14.3052 127.795 14.4602V16.6968C127.795 16.874 127.939 17.0179 128.105 17.0179H128.847H135.28C135.18 16.265 135.136 15.6117 135.136 14.8588V14.8035C135.136 14.4713 135.401 14.2056 135.722 14.2056H138.557C140.816 14.2056 140.672 14.1945 142.31 14.2056C142.576 14.2056 142.809 14.0284 142.886 13.7627L144.602 7.673C144.658 7.4737 144.503 7.30762 144.292 7.29655H144.303Z" fill="#333333"/>
<path d="M87.3483 9.67725L84.0267 16.0216V36.5494H81.779L78.9446 42.174V44.6099H84.0378V49.2934H90.5371V44.6099C92.364 44.6099 95.4974 44.5545 97.3244 44.5545L99.3948 39.3838V9.67725H87.3594H87.3483ZM92.9398 36.5494H90.5261V17.6824H92.9398V36.5494Z" fill="#333333"/>
<path d="M254.372 33.3493V29.2969H249.057L250.652 33.3493H254.372Z" fill="#333333"/>
<path d="M264.37 33.3493H268.101V29.2969H262.775L264.37 33.3493Z" fill="#333333"/>
<path d="M266.706 6.35526C267.149 5.69093 267.603 5.0266 267.99 4.30691L259.886 -0.0112305C255.733 9.73227 250.784 11.8138 248.459 13.3861V7.06388H240.642V3.50971H230.356L233.058 7.06388H225.174L223.148 14.0172H232.781V16.3313H229.127L226.149 22.6867V36.7594H232.792V39.0735H224.289L222.052 46.1929H232.803V54.807H240.675V46.1929H248.714V44.4988H255.202L255.302 44.3106V47.0122C255.302 47.5658 255.102 47.6212 254.637 47.7319C254.139 47.7873 251.891 47.7319 250.596 47.6876C251.648 50.6439 252.489 52.5926 253.132 54.353C255.977 54.353 258.203 54.4084 259.996 53.3012C261.724 52.194 262.011 50.1013 262.011 47.1672V44.4767H266.274L269.042 39.3613V47.3554C268.943 47.5326 268.666 47.4994 268.311 47.4994C267.813 47.4994 265.809 47.4994 264.48 47.444C265.167 49.8799 265.887 51.5518 266.817 54.353C267.99 54.353 269.053 54.3863 270.039 54.353C271.677 54.353 272.84 54.198 274.124 53.3898C275.962 52.2272 276.018 49.9242 276.018 46.8904V19.0107C276.571 17.1285 279.295 13.7404 280.745 13.984C274.722 12.9764 269.54 9.56618 266.75 6.31097L266.706 6.35526ZM240.365 30.8136H233.058V28.7874H240.365V30.8136ZM240.365 23.7496H233.058V21.657H240.365V23.7496ZM240.642 14.0283H246.499C246.112 14.2497 245.658 14.4711 245.215 14.6372C245.602 15.0801 246.056 15.6891 246.499 16.3534H240.642V14.0393V14.0283ZM255.257 30.7029V35.0875H253.896L248.681 44.1777V39.0956H240.642V36.7815C241.927 36.7815 244.075 36.5822 245.359 36.5822L247.618 30.8247V18.0142C248.116 18.7893 248.625 19.6197 249.013 20.3283V25.2444H255.257V30.714V30.7029ZM262.897 18.7229V25.2333H268.976V35.0764H264.946L261.945 40.3025V18.7118H254.582C257.372 16.7299 259.996 14.4047 262.399 11.8138C264.58 14.3494 267.249 16.7299 270.216 18.7118H262.908L262.897 18.7229Z" fill="#333333"/>
</g>
<defs>
<clipPath id="clip0_154_6228">
<rect width="280.701" height="60" fill="white"/>
</clipPath>
</defs>
</svg>
