<svg width="337" height="72" viewBox="0 0 337 72" fill="none" xmlns="http://www.w3.org/2000/svg">
<g clip-path="url(#clip0_154_6244)">
<path d="M56.1337 38.6361L51.0457 38.6167L53.5994 34.3054L56.1628 29.9941L58.6875 34.3151L61.2218 38.6458L56.1337 38.6361Z" fill="#00815F"/>
<path d="M51.5798 41.6559C51.5798 53.3662 42.0542 62.8917 30.3439 62.8917C18.6336 62.8917 9.10802 53.3662 9.10802 41.6559C9.10802 29.9455 18.6336 20.42 30.3439 20.42V11.3022C13.6135 11.3022 0 24.9157 0 41.6559C0 58.396 13.6135 72.0095 30.3536 72.0095C47.0937 72.0095 60.7072 58.396 60.7072 41.6559H51.5895H51.5798Z" fill="#00815F"/>
<path d="M59.309 26.683C62.0181 24.8381 66.2614 21.7503 68.9705 19.9054V69.2712H77.894V3.0293L56.1241 17.8468L34.3833 3.0293V28.3143H43.3068V19.9054C46.0256 21.76 49.7446 24.8186 52.4634 26.6733H59.3187L59.309 26.683Z" fill="#FFB100"/>
<path d="M230.817 54.8328L242.188 18.2454H246.334C247.043 18.2454 247.693 17.8958 248.062 17.3229L250.781 8.08867L225.215 8.30229L226.516 4.3503C226.594 4.11726 226.419 3.87451 226.166 3.87451H214.854C214.699 3.87451 214.553 3.97161 214.505 4.12697L213.087 8.41881L194.133 8.57417C193.647 8.57417 193.259 8.94316 193.259 9.39953L191.084 17.4297C191.084 17.8861 191.472 18.2551 191.958 18.2551H229.769L218.398 54.8425H189.025C188.608 54.8425 188.258 55.1921 188.258 55.6194V64.2225C188.258 64.6497 188.598 64.9993 189.025 64.9993H248.965C249.461 64.9993 249.898 64.6788 250.053 64.2127L253.219 54.8523H230.788L230.817 54.8328Z" fill="#00815F"/>
<path d="M208.348 47.667H219.661L210.922 26.6156C210.766 26.2369 210.397 25.9941 209.989 25.9941H198.677L207.416 47.0455C207.572 47.4242 207.941 47.667 208.348 47.667Z" fill="#00815F"/>
<path d="M161.07 34.3347V37.8983C161.07 38.2187 160.721 38.4809 160.284 38.4809H151.389C150.952 38.4809 150.603 38.2187 150.603 37.8983V34.3347C150.603 34.0143 150.952 33.7521 151.389 33.7521H160.284C160.721 33.7521 161.07 34.0143 161.07 34.3347ZM142.048 34.3347V37.8983C142.048 38.2187 141.699 38.4809 141.262 38.4809H132.367C131.93 38.4809 131.581 38.2187 131.581 37.8983V34.3347C131.581 34.0143 131.93 33.7521 132.367 33.7521H141.262C141.699 33.7521 142.048 34.0143 142.048 34.3347ZM161.07 48.3463V51.9099C161.07 52.2303 160.721 52.4925 160.284 52.4925H151.389C150.952 52.4925 150.603 52.2303 150.603 51.9099V48.3463C150.603 48.0259 150.952 47.7637 151.389 47.7637H160.284C160.721 47.7637 161.07 48.0259 161.07 48.3463ZM142.048 48.3463V51.9099C142.048 52.2303 141.699 52.4925 141.262 52.4925H132.367C131.93 52.4925 131.581 52.2303 131.581 51.9099V48.3463C131.581 48.0259 131.93 47.7637 132.367 47.7637H141.262C141.699 47.7637 142.048 48.0259 142.048 48.3463ZM169.916 24.2945C169.955 23.809 169.576 23.4012 169.13 23.4497C167.294 23.6342 165.508 23.6828 162.954 23.6828H130.163C127.609 23.6828 126.706 23.6925 124.861 23.6925C123.551 23.7022 123.395 24.0129 123.405 25.8384C123.405 27.9455 123.424 28.3921 123.424 31.0139V56.9106C123.424 60.1052 123.483 61.416 123.463 64.999C123.463 65.9118 124.726 65.805 125.153 65.805H131.853C132.251 65.805 132.571 65.4554 132.571 65.0282V63.795C132.571 63.3677 132.892 63.0182 133.29 63.0182H159.827C160.225 63.0182 160.546 63.3677 160.546 63.795V65.0282C160.546 65.4554 160.866 65.805 161.264 65.805H168.994C169.421 65.805 169.761 65.5525 169.761 64.6203C169.761 62.2122 169.683 60.2508 169.683 56.9785V31.0236C169.683 28.2368 169.732 26.4501 169.906 24.3042L169.916 24.2945Z" fill="#00815F"/>
<path d="M140.475 8.77799C140.087 8.77799 139.776 8.45756 139.776 8.04974V7.26322C139.776 6.11744 139.844 5.28237 140.941 4.36963C140.941 4.36963 134.222 4.36963 132.299 4.36963H131.406C131.202 4.36963 131.027 4.54441 131.027 4.75803V8.76828H128.279C125.667 8.76828 123.764 8.76828 121.958 8.76828C121.327 8.76828 121.181 9.50624 121.181 9.93349V16.5752C121.181 17.0024 121.541 17.3423 121.958 17.2937C123.725 17.1092 125.619 17.0218 128.279 17.0218H130.387C130.6 17.0218 130.794 17.1189 130.921 17.2743V20.3427C130.921 20.3427 130.921 20.3718 130.921 20.3912H139.893C139.776 19.5464 139.776 19.1289 139.776 17.7404C139.776 17.3423 140.087 17.0121 140.475 17.0121H145.631V8.74886H140.475V8.77799Z" fill="#00815F"/>
<path d="M173.179 8.75857C171.042 8.72944 169.168 8.77799 166.294 8.77799H162.896C162.507 8.77799 162.197 8.45756 162.197 8.04974V7.26322C162.197 6.1757 162.235 5.19498 163.236 4.36963H156.341H153.875C153.671 4.36963 153.496 4.54441 153.496 4.75803V6.70004C153.496 6.70004 153.496 6.7583 153.496 6.78743V8.21481C153.428 8.53524 153.147 8.77799 152.807 8.77799H148V17.0412H152.807C153.05 17.0412 153.254 17.1675 153.38 17.352V20.0319C153.38 20.2456 153.545 20.4203 153.759 20.4203H154.652H162.362C162.245 19.5173 162.187 18.7308 162.187 17.8278V17.7695C162.187 17.3714 162.498 17.0412 162.886 17.0412H166.285C168.994 17.0412 168.829 17.0218 170.79 17.0412C171.11 17.0412 171.392 16.8276 171.479 16.5169L173.538 9.20523C173.606 8.96248 173.412 8.75857 173.169 8.75857H173.179Z" fill="#00815F"/>
<path d="M104.82 11.6133L100.839 19.226V43.8603H98.1394L94.7312 50.6088V53.5316H100.839V59.1537H108.636V53.5316C110.821 53.5316 114.588 53.4636 116.773 53.4636L119.268 47.2589V11.6133H104.82ZM111.53 43.8603H108.636V21.2165H111.53V43.8603Z" fill="#00815F"/>
<path d="M305.264 40.0152V35.1602H298.875L300.788 40.0152H305.264Z" fill="#00815F"/>
<path d="M317.256 40.0152H321.733V35.1602H315.344L317.256 40.0152Z" fill="#00815F"/>
<path d="M320.063 7.63215C320.597 6.83593 321.131 6.0397 321.607 5.18522L311.877 0.00976562C306.896 11.7007 300.953 14.1961 298.167 16.0799V8.49635H288.796V4.23364H276.445L279.688 8.49635H270.231L267.793 16.847H279.358V19.6338H274.969L271.396 27.2562V44.1419H279.368V46.9287H269.163L266.473 55.4736H279.368V65.805H288.806V55.4736H298.448V53.4442H306.236L306.352 53.2208V56.464C306.352 57.1243 306.119 57.1922 305.546 57.3282C304.944 57.3961 302.245 57.3282 300.691 57.2796C301.953 60.8238 302.963 63.1736 303.74 65.2807C307.158 65.2807 309.828 65.3487 311.974 64.0184C314.052 62.6881 314.392 60.1732 314.392 56.6679V53.4442H319.509L322.83 47.2977V56.8912C322.714 57.1048 322.374 57.066 321.956 57.066C321.354 57.066 318.956 57.066 317.354 56.998C318.169 59.9208 319.043 61.9307 320.15 65.2904C321.548 65.2904 322.84 65.3195 324.015 65.2904C325.976 65.2807 327.374 65.1059 328.918 64.1349C331.132 62.7464 331.2 59.979 331.2 56.3378V22.8672C331.87 20.6145 335.133 16.546 336.88 16.8373C329.656 15.6332 323.432 11.5356 320.092 7.63215H320.063ZM288.456 36.9856H279.688V34.5581H288.456V36.9856ZM288.456 28.5088H279.688V26.0036H288.456V28.5088ZM288.787 16.847H295.817C295.351 17.1092 294.817 17.381 294.273 17.5752C294.739 18.1093 295.273 18.8375 295.817 19.6241H288.787V16.8373V16.847ZM306.333 36.8594V42.1222H304.692L298.429 53.0363V46.9287H288.787V44.1419C290.33 44.1419 292.904 43.8992 294.448 43.8992L297.157 36.9856V21.6146C297.759 22.5468 298.361 23.5372 298.827 24.4014V30.2954H306.323V36.8497L306.333 36.8594ZM315.509 22.4788V30.2954H322.811V42.1125H317.975L314.373 48.3852V22.4691H305.536C308.886 20.0804 312.032 17.3034 314.907 14.1864C317.519 17.2354 320.733 20.0804 324.277 22.4691H315.509V22.4788Z" fill="#00815F"/>
</g>
<defs>
<clipPath id="clip0_154_6244">
<rect width="336.861" height="72" fill="white"/>
</clipPath>
</defs>
</svg>
