<svg width="45" height="44" viewBox="0 0 45 44" fill="none" xmlns="http://www.w3.org/2000/svg">
<g id="Share" clip-path="url(#clip0_154_5966)">
<path id="Vector" d="M33.7012 29.4801C32.3078 29.4801 31.0612 30.0301 30.1078 30.8917L17.0362 23.2834C17.1278 22.8617 17.2012 22.4401 17.2012 22.0001C17.2012 21.5601 17.1278 21.1384 17.0362 20.7167L29.9612 13.1817C30.9512 14.0984 32.2528 14.6667 33.7012 14.6667C36.7445 14.6667 39.2012 12.2101 39.2012 9.16675C39.2012 6.12341 36.7445 3.66675 33.7012 3.66675C30.6578 3.66675 28.2012 6.12341 28.2012 9.16675C28.2012 9.60675 28.2745 10.0284 28.3662 10.4501L15.4412 17.9851C14.4512 17.0684 13.1495 16.5001 11.7012 16.5001C8.65784 16.5001 6.20117 18.9567 6.20117 22.0001C6.20117 25.0434 8.65784 27.5001 11.7012 27.5001C13.1495 27.5001 14.4512 26.9317 15.4412 26.0151L28.4945 33.6418C28.4028 34.0267 28.3478 34.4301 28.3478 34.8334C28.3478 37.7851 30.7495 40.1867 33.7012 40.1867C36.6528 40.1867 39.0545 37.7851 39.0545 34.8334C39.0545 31.8817 36.6528 29.4801 33.7012 29.4801ZM33.7012 7.33341C34.7095 7.33341 35.5345 8.15841 35.5345 9.16675C35.5345 10.1751 34.7095 11.0001 33.7012 11.0001C32.6928 11.0001 31.8678 10.1751 31.8678 9.16675C31.8678 8.15841 32.6928 7.33341 33.7012 7.33341ZM11.7012 23.8334C10.6928 23.8334 9.86784 23.0084 9.86784 22.0001C9.86784 20.9917 10.6928 20.1667 11.7012 20.1667C12.7095 20.1667 13.5345 20.9917 13.5345 22.0001C13.5345 23.0084 12.7095 23.8334 11.7012 23.8334ZM33.7012 36.7034C32.6928 36.7034 31.8678 35.8784 31.8678 34.8701C31.8678 33.8617 32.6928 33.0367 33.7012 33.0367C34.7095 33.0367 35.5345 33.8617 35.5345 34.8701C35.5345 35.8784 34.7095 36.7034 33.7012 36.7034Z" fill="white"/>
</g>
<defs>
<clipPath id="clip0_154_5966">
<rect width="44" height="44" fill="white" transform="translate(0.701172)"/>
</clipPath>
</defs>
</svg>
