<svg width="59" height="59" viewBox="0 0 59 59" fill="none" xmlns="http://www.w3.org/2000/svg">
<path d="M36.229 0.848986C20.569 -3.00101 4.69899 6.60899 0.848986 22.269C-3.00101 37.929 6.60899 53.799 22.269 57.649C37.929 61.499 53.799 51.889 57.649 36.229C61.499 20.569 51.889 4.69899 36.229 0.848986ZM5.28899 23.359C7.33899 15.019 13.439 8.70899 20.979 6.01899L26.149 28.339L11.819 46.699C5.91899 40.789 3.14899 32.039 5.28899 23.349V23.359ZM15.339 49.629L27.469 34.079L32.029 53.769C29.199 54.089 26.269 53.929 23.349 53.219C20.429 52.509 17.709 51.259 15.329 49.639L15.339 49.629ZM36.509 52.819L25.409 4.87899C28.559 4.37899 31.849 4.47899 35.139 5.28899C48.349 8.53899 56.459 21.929 53.209 35.139C51.069 43.849 44.519 50.339 36.519 52.819H36.509Z" fill="#F60000"/>
</svg>
